<?xml version="1.0" encoding="UTF-8" standalone="no"?>
<!DOCTYPE svg PUBLIC "-//W3C//DTD SVG 1.1//EN"
 "http://www.w3.org/Graphics/SVG/1.1/DTD/svg11.dtd">
<!-- Generated by graphviz version 2.26.3 (20100126.1600)
 -->
<!-- Title: controllers_diagram Pages: 1 -->
<svg width="659pt" height="740pt"
 viewBox="0.00 0.00 659.00 740.00" xmlns="http://www.w3.org/2000/svg" xmlns:xlink="http://www.w3.org/1999/xlink">
<g id="graph1" class="graph" transform="scale(1 1) rotate(0) translate(4 736)">
<title>controllers_diagram</title>
<polygon fill="none" stroke="none" points="-4,5 -4,-736 656,-736 656,5 -4,5"/>
<!-- _diagram_info -->
<g id="node1" class="node"><title>_diagram_info</title>
<text text-anchor="start" x="408" y="-141.3" font-family="Times Roman,serif" font-size="13.00">Controllers diagram</text>
<text text-anchor="start" x="408" y="-124.3" font-family="Times Roman,serif" font-size="13.00">Date: Nov 30 2016 &#45; 02:00</text>
<text text-anchor="start" x="408" y="-107.3" font-family="Times Roman,serif" font-size="13.00">Migration version: 20161130044937</text>
<text text-anchor="start" x="408" y="-90.3" font-family="Times Roman,serif" font-size="13.00">Generated by RailRoady 1.5.2</text>
<text text-anchor="start" x="408" y="-73.3" font-family="Times Roman,serif" font-size="13.00">http://railroady.prestonlee.com</text>
</g>
<!-- ProductsController -->
<g id="node2" class="node"><title>ProductsController</title>
<polyline fill="none" stroke="black" points="223,-463.5 345,-463.5 "/>
<path fill="none" stroke="black" d="M345,-463.5C351,-463.5 357,-469.5 357,-475.5"/>
<polyline fill="none" stroke="black" points="357,-475.5 357,-697.5 "/>
<path fill="none" stroke="black" d="M357,-697.5C357,-703.5 351,-709.5 345,-709.5"/>
<polyline fill="none" stroke="black" points="345,-709.5 223,-709.5 "/>
<path fill="none" stroke="black" d="M223,-709.5C217,-709.5 211,-703.5 211,-697.5"/>
<polyline fill="none" stroke="black" points="211,-697.5 211,-475.5 "/>
<path fill="none" stroke="black" d="M211,-475.5C211,-469.5 217,-463.5 223,-463.5"/>
<text text-anchor="middle" x="284" y="-692.9" font-family="Times Roman,serif" font-size="14.00">ProductsController</text>
<polyline fill="none" stroke="black" points="211,-683.5 357,-683.5 "/>
<text text-anchor="start" x="219" y="-666.9" font-family="Times Roman,serif" font-size="14.00">create</text>
<text text-anchor="start" x="219" y="-648.9" font-family="Times Roman,serif" font-size="14.00">destroy</text>
<text text-anchor="start" x="219" y="-630.9" font-family="Times Roman,serif" font-size="14.00">edit</text>
<text text-anchor="start" x="219" y="-612.9" font-family="Times Roman,serif" font-size="14.00">index</text>
<text text-anchor="start" x="219" y="-594.9" font-family="Times Roman,serif" font-size="14.00">new</text>
<text text-anchor="start" x="219" y="-576.9" font-family="Times Roman,serif" font-size="14.00">show</text>
<text text-anchor="start" x="219" y="-558.9" font-family="Times Roman,serif" font-size="14.00">update</text>
<polyline fill="none" stroke="black" points="211,-549.5 357,-549.5 "/>
<polyline fill="none" stroke="black" points="211,-525.5 357,-525.5 "/>
<text text-anchor="start" x="219" y="-508.9" font-family="Times Roman,serif" font-size="14.00">_layout</text>
<text text-anchor="start" x="219" y="-490.9" font-family="Times Roman,serif" font-size="14.00">product_params</text>
<text text-anchor="start" x="219" y="-472.9" font-family="Times Roman,serif" font-size="14.00">set_product</text>
</g>
<!-- ClientsController -->
<g id="node3" class="node"><title>ClientsController</title>
<polyline fill="none" stroke="black" points="496,-484.5 605,-484.5 "/>
<path fill="none" stroke="black" d="M605,-484.5C611,-484.5 617,-490.5 617,-496.5"/>
<polyline fill="none" stroke="black" points="617,-496.5 617,-718.5 "/>
<path fill="none" stroke="black" d="M617,-718.5C617,-724.5 611,-730.5 605,-730.5"/>
<polyline fill="none" stroke="black" points="605,-730.5 496,-730.5 "/>
<path fill="none" stroke="black" d="M496,-730.5C490,-730.5 484,-724.5 484,-718.5"/>
<polyline fill="none" stroke="black" points="484,-718.5 484,-496.5 "/>
<path fill="none" stroke="black" d="M484,-496.5C484,-490.5 490,-484.5 496,-484.5"/>
<text text-anchor="middle" x="550.5" y="-713.9" font-family="Times Roman,serif" font-size="14.00">ClientsController</text>
<polyline fill="none" stroke="black" points="484,-704.5 617,-704.5 "/>
<text text-anchor="start" x="492" y="-687.9" font-family="Times Roman,serif" font-size="14.00">create</text>
<text text-anchor="start" x="492" y="-669.9" font-family="Times Roman,serif" font-size="14.00">destroy</text>
<text text-anchor="start" x="492" y="-651.9" font-family="Times Roman,serif" font-size="14.00">edit</text>
<text text-anchor="start" x="492" y="-633.9" font-family="Times Roman,serif" font-size="14.00">index</text>
<text text-anchor="start" x="492" y="-615.9" font-family="Times Roman,serif" font-size="14.00">new</text>
<text text-anchor="start" x="492" y="-597.9" font-family="Times Roman,serif" font-size="14.00">show</text>
<text text-anchor="start" x="492" y="-579.9" font-family="Times Roman,serif" font-size="14.00">update</text>
<polyline fill="none" stroke="black" points="484,-570.5 617,-570.5 "/>
<polyline fill="none" stroke="black" points="484,-546.5 617,-546.5 "/>
<text text-anchor="start" x="492" y="-529.9" font-family="Times Roman,serif" font-size="14.00">_layout</text>
<text text-anchor="start" x="492" y="-511.9" font-family="Times Roman,serif" font-size="14.00">client_params</text>
<text text-anchor="start" x="492" y="-493.9" font-family="Times Roman,serif" font-size="14.00">set_client</text>
</g>
<!-- PaymentsController -->
<g id="node4" class="node"><title>PaymentsController</title>
<polyline fill="none" stroke="black" points="223,-169.5 352,-169.5 "/>
<path fill="none" stroke="black" d="M352,-169.5C358,-169.5 364,-175.5 364,-181.5"/>
<polyline fill="none" stroke="black" points="364,-181.5 364,-403.5 "/>
<path fill="none" stroke="black" d="M364,-403.5C364,-409.5 358,-415.5 352,-415.5"/>
<polyline fill="none" stroke="black" points="352,-415.5 223,-415.5 "/>
<path fill="none" stroke="black" d="M223,-415.5C217,-415.5 211,-409.5 211,-403.5"/>
<polyline fill="none" stroke="black" points="211,-403.5 211,-181.5 "/>
<path fill="none" stroke="black" d="M211,-181.5C211,-175.5 217,-169.5 223,-169.5"/>
<text text-anchor="middle" x="287.5" y="-398.9" font-family="Times Roman,serif" font-size="14.00">PaymentsController</text>
<polyline fill="none" stroke="black" points="211,-389.5 364,-389.5 "/>
<text text-anchor="start" x="219" y="-372.9" font-family="Times Roman,serif" font-size="14.00">create</text>
<text text-anchor="start" x="219" y="-354.9" font-family="Times Roman,serif" font-size="14.00">destroy</text>
<text text-anchor="start" x="219" y="-336.9" font-family="Times Roman,serif" font-size="14.00">edit</text>
<text text-anchor="start" x="219" y="-318.9" font-family="Times Roman,serif" font-size="14.00">index</text>
<text text-anchor="start" x="219" y="-300.9" font-family="Times Roman,serif" font-size="14.00">new</text>
<text text-anchor="start" x="219" y="-282.9" font-family="Times Roman,serif" font-size="14.00">show</text>
<text text-anchor="start" x="219" y="-264.9" font-family="Times Roman,serif" font-size="14.00">update</text>
<polyline fill="none" stroke="black" points="211,-255.5 364,-255.5 "/>
<polyline fill="none" stroke="black" points="211,-231.5 364,-231.5 "/>
<text text-anchor="start" x="219" y="-214.9" font-family="Times Roman,serif" font-size="14.00">_layout</text>
<text text-anchor="start" x="219" y="-196.9" font-family="Times Roman,serif" font-size="14.00">payment_params</text>
<text text-anchor="start" x="219" y="-178.9" font-family="Times Roman,serif" font-size="14.00">set_payment</text>
</g>
<!-- ApplicationController -->
<g id="node5" class="node"><title>ApplicationController</title>
<polyline fill="none" stroke="black" points="181,-22.5 318,-22.5 "/>
<path fill="none" stroke="black" d="M318,-22.5C324,-22.5 330,-28.5 330,-34.5"/>
<polyline fill="none" stroke="black" points="330,-34.5 330,-110.5 "/>
<path fill="none" stroke="black" d="M330,-110.5C330,-116.5 324,-122.5 318,-122.5"/>
<polyline fill="none" stroke="black" points="318,-122.5 181,-122.5 "/>
<path fill="none" stroke="black" d="M181,-122.5C175,-122.5 169,-116.5 169,-110.5"/>
<polyline fill="none" stroke="black" points="169,-110.5 169,-34.5 "/>
<path fill="none" stroke="black" d="M169,-34.5C169,-28.5 175,-22.5 181,-22.5"/>
<text text-anchor="middle" x="249.5" y="-105.9" font-family="Times Roman,serif" font-size="14.00">ApplicationController</text>
<polyline fill="none" stroke="black" points="169,-96.5 330,-96.5 "/>
<polyline fill="none" stroke="black" points="169,-72.5 330,-72.5 "/>
<polyline fill="none" stroke="black" points="169,-48.5 330,-48.5 "/>
<text text-anchor="start" x="177" y="-31.9" font-family="Times Roman,serif" font-size="14.00">_layout</text>
</g>
<!-- PagesController -->
<g id="node6" class="node"><title>PagesController</title>
<polyline fill="none" stroke="black" points="55,-589.5 156,-589.5 "/>
<path fill="none" stroke="black" d="M156,-589.5C162,-589.5 168,-595.5 168,-601.5"/>
<polyline fill="none" stroke="black" points="168,-601.5 168,-715.5 "/>
<path fill="none" stroke="black" d="M168,-715.5C168,-721.5 162,-727.5 156,-727.5"/>
<polyline fill="none" stroke="black" points="156,-727.5 55,-727.5 "/>
<path fill="none" stroke="black" d="M55,-727.5C49,-727.5 43,-721.5 43,-715.5"/>
<polyline fill="none" stroke="black" points="43,-715.5 43,-601.5 "/>
<path fill="none" stroke="black" d="M43,-601.5C43,-595.5 49,-589.5 55,-589.5"/>
<text text-anchor="middle" x="105.5" y="-710.9" font-family="Times Roman,serif" font-size="14.00">PagesController</text>
<polyline fill="none" stroke="black" points="43,-701.5 168,-701.5 "/>
<text text-anchor="start" x="51" y="-684.9" font-family="Times Roman,serif" font-size="14.00">home</text>
<text text-anchor="start" x="51" y="-666.9" font-family="Times Roman,serif" font-size="14.00">livemap</text>
<text text-anchor="start" x="51" y="-648.9" font-family="Times Roman,serif" font-size="14.00">status</text>
<polyline fill="none" stroke="black" points="43,-639.5 168,-639.5 "/>
<polyline fill="none" stroke="black" points="43,-615.5 168,-615.5 "/>
<text text-anchor="start" x="51" y="-598.9" font-family="Times Roman,serif" font-size="14.00">_layout</text>
</g>
<!-- CategoriesController -->
<g id="node7" class="node"><title>CategoriesController</title>
<polyline fill="none" stroke="black" points="412,-190.5 547,-190.5 "/>
<path fill="none" stroke="black" d="M547,-190.5C553,-190.5 559,-196.5 559,-202.5"/>
<polyline fill="none" stroke="black" points="559,-202.5 559,-424.5 "/>
<path fill="none" stroke="black" d="M559,-424.5C559,-430.5 553,-436.5 547,-436.5"/>
<polyline fill="none" stroke="black" points="547,-436.5 412,-436.5 "/>
<path fill="none" stroke="black" d="M412,-436.5C406,-436.5 400,-430.5 400,-424.5"/>
<polyline fill="none" stroke="black" points="400,-424.5 400,-202.5 "/>
<path fill="none" stroke="black" d="M400,-202.5C400,-196.5 406,-190.5 412,-190.5"/>
<text text-anchor="middle" x="479.5" y="-419.9" font-family="Times Roman,serif" font-size="14.00">CategoriesController</text>
<polyline fill="none" stroke="black" points="400,-410.5 559,-410.5 "/>
<text text-anchor="start" x="408" y="-393.9" font-family="Times Roman,serif" font-size="14.00">create</text>
<text text-anchor="start" x="408" y="-375.9" font-family="Times Roman,serif" font-size="14.00">destroy</text>
<text text-anchor="start" x="408" y="-357.9" font-family="Times Roman,serif" font-size="14.00">edit</text>
<text text-anchor="start" x="408" y="-339.9" font-family="Times Roman,serif" font-size="14.00">index</text>
<text text-anchor="start" x="408" y="-321.9" font-family="Times Roman,serif" font-size="14.00">new</text>
<text text-anchor="start" x="408" y="-303.9" font-family="Times Roman,serif" font-size="14.00">show</text>
<text text-anchor="start" x="408" y="-285.9" font-family="Times Roman,serif" font-size="14.00">update</text>
<polyline fill="none" stroke="black" points="400,-276.5 559,-276.5 "/>
<polyline fill="none" stroke="black" points="400,-252.5 559,-252.5 "/>
<text text-anchor="start" x="408" y="-235.9" font-family="Times Roman,serif" font-size="14.00">_layout</text>
<text text-anchor="start" x="408" y="-217.9" font-family="Times Roman,serif" font-size="14.00">category_params</text>
<text text-anchor="start" x="408" y="-199.9" font-family="Times Roman,serif" font-size="14.00">set_category</text>
</g>
<!-- ZonesController -->
<g id="node8" class="node"><title>ZonesController</title>
<polyline fill="none" stroke="black" points="13,-1.5 117,-1.5 "/>
<path fill="none" stroke="black" d="M117,-1.5C123,-1.5 129,-7.5 129,-13.5"/>
<polyline fill="none" stroke="black" points="129,-13.5 129,-235.5 "/>
<path fill="none" stroke="black" d="M129,-235.5C129,-241.5 123,-247.5 117,-247.5"/>
<polyline fill="none" stroke="black" points="117,-247.5 13,-247.5 "/>
<path fill="none" stroke="black" d="M13,-247.5C7,-247.5 1,-241.5 1,-235.5"/>
<polyline fill="none" stroke="black" points="1,-235.5 1,-13.5 "/>
<path fill="none" stroke="black" d="M1,-13.5C1,-7.5 7,-1.5 13,-1.5"/>
<text text-anchor="middle" x="65" y="-230.9" font-family="Times Roman,serif" font-size="14.00">ZonesController</text>
<polyline fill="none" stroke="black" points="1,-221.5 129,-221.5 "/>
<text text-anchor="start" x="9" y="-204.9" font-family="Times Roman,serif" font-size="14.00">create</text>
<text text-anchor="start" x="9" y="-186.9" font-family="Times Roman,serif" font-size="14.00">destroy</text>
<text text-anchor="start" x="9" y="-168.9" font-family="Times Roman,serif" font-size="14.00">edit</text>
<text text-anchor="start" x="9" y="-150.9" font-family="Times Roman,serif" font-size="14.00">index</text>
<text text-anchor="start" x="9" y="-132.9" font-family="Times Roman,serif" font-size="14.00">new</text>
<text text-anchor="start" x="9" y="-114.9" font-family="Times Roman,serif" font-size="14.00">show</text>
<text text-anchor="start" x="9" y="-96.9" font-family="Times Roman,serif" font-size="14.00">update</text>
<polyline fill="none" stroke="black" points="1,-87.5 129,-87.5 "/>
<polyline fill="none" stroke="black" points="1,-63.5 129,-63.5 "/>
<text text-anchor="start" x="9" y="-46.9" font-family="Times Roman,serif" font-size="14.00">_layout</text>
<text text-anchor="start" x="9" y="-28.9" font-family="Times Roman,serif" font-size="14.00">set_zone</text>
<text text-anchor="start" x="9" y="-10.9" font-family="Times Roman,serif" font-size="14.00">zone_params</text>
</g>
<!-- OrdersController -->
<g id="node9" class="node"><title>OrdersController</title>
<polyline fill="none" stroke="black" points="55,-295.5 163,-295.5 "/>
<path fill="none" stroke="black" d="M163,-295.5C169,-295.5 175,-301.5 175,-307.5"/>
<polyline fill="none" stroke="black" points="175,-307.5 175,-529.5 "/>
<path fill="none" stroke="black" d="M175,-529.5C175,-535.5 169,-541.5 163,-541.5"/>
<polyline fill="none" stroke="black" points="163,-541.5 55,-541.5 "/>
<path fill="none" stroke="black" d="M55,-541.5C49,-541.5 43,-535.5 43,-529.5"/>
<polyline fill="none" stroke="black" points="43,-529.5 43,-307.5 "/>
<path fill="none" stroke="black" d="M43,-307.5C43,-301.5 49,-295.5 55,-295.5"/>
<text text-anchor="middle" x="109" y="-524.9" font-family="Times Roman,serif" font-size="14.00">OrdersController</text>
<polyline fill="none" stroke="black" points="43,-515.5 175,-515.5 "/>
<text text-anchor="start" x="51" y="-498.9" font-family="Times Roman,serif" font-size="14.00">create</text>
<text text-anchor="start" x="51" y="-480.9" font-family="Times Roman,serif" font-size="14.00">destroy</text>
<text text-anchor="start" x="51" y="-462.9" font-family="Times Roman,serif" font-size="14.00">edit</text>
<text text-anchor="start" x="51" y="-444.9" font-family="Times Roman,serif" font-size="14.00">index</text>
<text text-anchor="start" x="51" y="-426.9" font-family="Times Roman,serif" font-size="14.00">new</text>
<text text-anchor="start" x="51" y="-408.9" font-family="Times Roman,serif" font-size="14.00">show</text>
<text text-anchor="start" x="51" y="-390.9" font-family="Times Roman,serif" font-size="14.00">update</text>
<polyline fill="none" stroke="black" points="43,-381.5 175,-381.5 "/>
<polyline fill="none" stroke="black" points="43,-357.5 175,-357.5 "/>
<text text-anchor="start" x="51" y="-340.9" font-family="Times Roman,serif" font-size="14.00">_layout</text>
<text text-anchor="start" x="51" y="-322.9" font-family="Times Roman,serif" font-size="14.00">order_params</text>
<text text-anchor="start" x="51" y="-304.9" font-family="Times Roman,serif" font-size="14.00">set_order</text>
</g>
</g>
</svg>
