<?xml version="1.0" encoding="UTF-8" standalone="no"?>
<!DOCTYPE svg PUBLIC "-//W3C//DTD SVG 1.1//EN"
 "http://www.w3.org/Graphics/SVG/1.1/DTD/svg11.dtd">
<!-- Generated by graphviz version 2.26.3 (20100126.1600)
 -->
<!-- Title: models_diagram Pages: 1 -->
<svg width="1450pt" height="1196pt"
 viewBox="0.00 0.00 1450.00 1196.00" xmlns="http://www.w3.org/2000/svg" xmlns:xlink="http://www.w3.org/1999/xlink">
<g id="graph1" class="graph" transform="scale(1 1) rotate(0) translate(4 1192)">
<title>models_diagram</title>
<polygon fill="none" stroke="none" points="-4,5 -4,-1192 1447,-1192 1447,5 -4,5"/>
<!-- _diagram_info -->
<g id="node1" class="node"><title>_diagram_info</title>
<text text-anchor="start" x="8" y="-1119.8" font-family="Times Roman,serif" font-size="13.00">Models diagram</text>
<text text-anchor="start" x="8" y="-1102.8" font-family="Times Roman,serif" font-size="13.00">Date: Dec 03 2016 &#45; 01:49</text>
<text text-anchor="start" x="8" y="-1085.8" font-family="Times Roman,serif" font-size="13.00">Migration version: 20161203044756</text>
<text text-anchor="start" x="8" y="-1068.8" font-family="Times Roman,serif" font-size="13.00">Generated by RailRoady 1.5.2</text>
<text text-anchor="start" x="8" y="-1051.8" font-family="Times Roman,serif" font-size="13.00">http://railroady.prestonlee.com</text>
</g>
<!-- Category -->
<g id="node2" class="node"><title>Category</title>
<polyline fill="none" stroke="black" points="256.5,-784 541.5,-784 "/>
<path fill="none" stroke="black" d="M541.5,-784C547.5,-784 553.5,-790 553.5,-796"/>
<polyline fill="none" stroke="black" points="553.5,-796 553.5,-896 "/>
<path fill="none" stroke="black" d="M553.5,-896C553.5,-902 547.5,-908 541.5,-908"/>
<polyline fill="none" stroke="black" points="541.5,-908 256.5,-908 "/>
<path fill="none" stroke="black" d="M256.5,-908C250.5,-908 244.5,-902 244.5,-896"/>
<polyline fill="none" stroke="black" points="244.5,-896 244.5,-796 "/>
<path fill="none" stroke="black" d="M244.5,-796C244.5,-790 250.5,-784 256.5,-784"/>
<text text-anchor="middle" x="399" y="-891.4" font-family="Times Roman,serif" font-size="14.00">Category</text>
<polyline fill="none" stroke="black" points="244.5,-882 553.5,-882 "/>
<text text-anchor="start" x="252.5" y="-865.4" font-family="Times Roman,serif" font-size="14.00">id :integer</text>
<text text-anchor="start" x="252.5" y="-847.4" font-family="Times Roman,serif" font-size="14.00">name :character varying</text>
<text text-anchor="start" x="252.5" y="-829.4" font-family="Times Roman,serif" font-size="14.00">description :character varying</text>
<text text-anchor="start" x="252.5" y="-811.4" font-family="Times Roman,serif" font-size="14.00">created_at :timestamp without time zone</text>
<text text-anchor="start" x="252.5" y="-793.4" font-family="Times Roman,serif" font-size="14.00">updated_at :timestamp without time zone</text>
</g>
<!-- Product -->
<g id="node8" class="node"><title>Product</title>
<polyline fill="none" stroke="black" points="401.5,-334 686.5,-334 "/>
<path fill="none" stroke="black" d="M686.5,-334C692.5,-334 698.5,-340 698.5,-346"/>
<polyline fill="none" stroke="black" points="698.5,-346 698.5,-518 "/>
<path fill="none" stroke="black" d="M698.5,-518C698.5,-524 692.5,-530 686.5,-530"/>
<polyline fill="none" stroke="black" points="686.5,-530 401.5,-530 "/>
<path fill="none" stroke="black" d="M401.5,-530C395.5,-530 389.5,-524 389.5,-518"/>
<polyline fill="none" stroke="black" points="389.5,-518 389.5,-346 "/>
<path fill="none" stroke="black" d="M389.5,-346C389.5,-340 395.5,-334 401.5,-334"/>
<text text-anchor="middle" x="544" y="-513.4" font-family="Times Roman,serif" font-size="14.00">Product</text>
<polyline fill="none" stroke="black" points="389.5,-504 698.5,-504 "/>
<text text-anchor="start" x="397.5" y="-487.4" font-family="Times Roman,serif" font-size="14.00">id :integer</text>
<text text-anchor="start" x="397.5" y="-469.4" font-family="Times Roman,serif" font-size="14.00">name :character varying</text>
<text text-anchor="start" x="397.5" y="-451.4" font-family="Times Roman,serif" font-size="14.00">description :character varying</text>
<text text-anchor="start" x="397.5" y="-433.4" font-family="Times Roman,serif" font-size="14.00">cookingtime :integer</text>
<text text-anchor="start" x="397.5" y="-415.4" font-family="Times Roman,serif" font-size="14.00">price :integer</text>
<text text-anchor="start" x="397.5" y="-397.4" font-family="Times Roman,serif" font-size="14.00">additional :character varying</text>
<text text-anchor="start" x="397.5" y="-379.4" font-family="Times Roman,serif" font-size="14.00">picture :character varying</text>
<text text-anchor="start" x="397.5" y="-361.4" font-family="Times Roman,serif" font-size="14.00">created_at :timestamp without time zone</text>
<text text-anchor="start" x="397.5" y="-343.4" font-family="Times Roman,serif" font-size="14.00">updated_at :timestamp without time zone</text>
</g>
<!-- Category&#45;&gt;Product -->
<g id="edge4" class="edge"><title>Category&#45;&gt;Product</title>
<path fill="none" stroke="#973bc2" d="M424.266,-773.861C446.903,-709.229 480.418,-613.539 506.236,-539.822"/>
<polygon fill="#973bc2" stroke="#973bc2" points="424.171,-774.134 416.618,-782.084 422.518,-778.853 420.865,-783.572 420.865,-783.572 420.865,-783.572 422.518,-778.853 425.112,-785.059 424.171,-774.134 424.171,-774.134"/>
<polygon fill="#973bc2" stroke="#973bc2" points="506.36,-539.469 513.913,-531.518 508.013,-534.75 509.666,-530.031 509.666,-530.031 509.666,-530.031 508.013,-534.75 505.419,-528.543 506.36,-539.469 506.36,-539.469"/>
</g>
<!-- ProductCategory -->
<g id="node9" class="node"><title>ProductCategory</title>
<polyline fill="none" stroke="black" points="202.5,-1 487.5,-1 "/>
<path fill="none" stroke="black" d="M487.5,-1C493.5,-1 499.5,-7 499.5,-13"/>
<polyline fill="none" stroke="black" points="499.5,-13 499.5,-113 "/>
<path fill="none" stroke="black" d="M499.5,-113C499.5,-119 493.5,-125 487.5,-125"/>
<polyline fill="none" stroke="black" points="487.5,-125 202.5,-125 "/>
<path fill="none" stroke="black" d="M202.5,-125C196.5,-125 190.5,-119 190.5,-113"/>
<polyline fill="none" stroke="black" points="190.5,-113 190.5,-13 "/>
<path fill="none" stroke="black" d="M190.5,-13C190.5,-7 196.5,-1 202.5,-1"/>
<text text-anchor="middle" x="345" y="-108.4" font-family="Times Roman,serif" font-size="14.00">ProductCategory</text>
<polyline fill="none" stroke="black" points="190.5,-99 499.5,-99 "/>
<text text-anchor="start" x="198.5" y="-82.4" font-family="Times Roman,serif" font-size="14.00">id :integer</text>
<text text-anchor="start" x="198.5" y="-64.4" font-family="Times Roman,serif" font-size="14.00">product_id :integer</text>
<text text-anchor="start" x="198.5" y="-46.4" font-family="Times Roman,serif" font-size="14.00">category_id :integer</text>
<text text-anchor="start" x="198.5" y="-28.4" font-family="Times Roman,serif" font-size="14.00">created_at :timestamp without time zone</text>
<text text-anchor="start" x="198.5" y="-10.4" font-family="Times Roman,serif" font-size="14.00">updated_at :timestamp without time zone</text>
</g>
<!-- Category&#45;&gt;ProductCategory -->
<g id="edge2" class="edge"><title>Category&#45;&gt;ProductCategory</title>
<path fill="none" stroke="#06d0f4" d="M389.225,-775.582C386.24,-752.204 383.175,-726.017 381,-702 362.425,-496.893 351.876,-253.825 347.468,-135.281"/>
<ellipse fill="none" stroke="#06d0f4" cx="389.764" cy="-779.759" rx="4.00001" ry="4.00001"/>
<polygon fill="#06d0f4" stroke="#06d0f4" points="347.466,-135.23 351.595,-125.071 347.282,-130.234 347.098,-125.237 347.098,-125.237 347.098,-125.237 347.282,-130.234 342.601,-125.403 347.466,-135.23 347.466,-135.23"/>
</g>
<!-- Order -->
<g id="node3" class="node"><title>Order</title>
<polyline fill="none" stroke="black" points="605.5,-739 890.5,-739 "/>
<path fill="none" stroke="black" d="M890.5,-739C896.5,-739 902.5,-745 902.5,-751"/>
<polyline fill="none" stroke="black" points="902.5,-751 902.5,-941 "/>
<path fill="none" stroke="black" d="M902.5,-941C902.5,-947 896.5,-953 890.5,-953"/>
<polyline fill="none" stroke="black" points="890.5,-953 605.5,-953 "/>
<path fill="none" stroke="black" d="M605.5,-953C599.5,-953 593.5,-947 593.5,-941"/>
<polyline fill="none" stroke="black" points="593.5,-941 593.5,-751 "/>
<path fill="none" stroke="black" d="M593.5,-751C593.5,-745 599.5,-739 605.5,-739"/>
<text text-anchor="middle" x="748" y="-936.4" font-family="Times Roman,serif" font-size="14.00">Order</text>
<polyline fill="none" stroke="black" points="593.5,-927 902.5,-927 "/>
<text text-anchor="start" x="601.5" y="-910.4" font-family="Times Roman,serif" font-size="14.00">id :integer</text>
<text text-anchor="start" x="601.5" y="-892.4" font-family="Times Roman,serif" font-size="14.00">totalamount :integer</text>
<text text-anchor="start" x="601.5" y="-874.4" font-family="Times Roman,serif" font-size="14.00">deliveryamount :integer</text>
<text text-anchor="start" x="601.5" y="-856.4" font-family="Times Roman,serif" font-size="14.00">productsamount :integer</text>
<text text-anchor="start" x="601.5" y="-838.4" font-family="Times Roman,serif" font-size="14.00">orderlist :character varying</text>
<text text-anchor="start" x="601.5" y="-820.4" font-family="Times Roman,serif" font-size="14.00">client_id :integer</text>
<text text-anchor="start" x="601.5" y="-802.4" font-family="Times Roman,serif" font-size="14.00">zone_id :integer</text>
<text text-anchor="start" x="601.5" y="-784.4" font-family="Times Roman,serif" font-size="14.00">payment_id :integer</text>
<text text-anchor="start" x="601.5" y="-766.4" font-family="Times Roman,serif" font-size="14.00">created_at :timestamp without time zone</text>
<text text-anchor="start" x="601.5" y="-748.4" font-family="Times Roman,serif" font-size="14.00">updated_at :timestamp without time zone</text>
</g>
<!-- OrderProduct -->
<g id="node7" class="node"><title>OrderProduct</title>
<polyline fill="none" stroke="black" points="528.5,-1 813.5,-1 "/>
<path fill="none" stroke="black" d="M813.5,-1C819.5,-1 825.5,-7 825.5,-13"/>
<polyline fill="none" stroke="black" points="825.5,-13 825.5,-113 "/>
<path fill="none" stroke="black" d="M825.5,-113C825.5,-119 819.5,-125 813.5,-125"/>
<polyline fill="none" stroke="black" points="813.5,-125 528.5,-125 "/>
<path fill="none" stroke="black" d="M528.5,-125C522.5,-125 516.5,-119 516.5,-113"/>
<polyline fill="none" stroke="black" points="516.5,-113 516.5,-13 "/>
<path fill="none" stroke="black" d="M516.5,-13C516.5,-7 522.5,-1 528.5,-1"/>
<text text-anchor="middle" x="671" y="-108.4" font-family="Times Roman,serif" font-size="14.00">OrderProduct</text>
<polyline fill="none" stroke="black" points="516.5,-99 825.5,-99 "/>
<text text-anchor="start" x="524.5" y="-82.4" font-family="Times Roman,serif" font-size="14.00">id :integer</text>
<text text-anchor="start" x="524.5" y="-64.4" font-family="Times Roman,serif" font-size="14.00">product_id :integer</text>
<text text-anchor="start" x="524.5" y="-46.4" font-family="Times Roman,serif" font-size="14.00">order_id :integer</text>
<text text-anchor="start" x="524.5" y="-28.4" font-family="Times Roman,serif" font-size="14.00">created_at :timestamp without time zone</text>
<text text-anchor="start" x="524.5" y="-10.4" font-family="Times Roman,serif" font-size="14.00">updated_at :timestamp without time zone</text>
</g>
<!-- Order&#45;&gt;OrderProduct -->
<g id="edge6" class="edge"><title>Order&#45;&gt;OrderProduct</title>
<path fill="none" stroke="#7be650" d="M751.15,-730.633C752.588,-593.581 747.765,-358.733 707,-162 705.147,-153.057 702.647,-143.836 699.823,-134.786"/>
<ellipse fill="none" stroke="#7be650" cx="751.103" cy="-734.706" rx="4" ry="4"/>
<polygon fill="#7be650" stroke="#7be650" points="699.749,-134.56 700.925,-123.657 698.198,-129.806 696.647,-125.053 696.647,-125.053 696.647,-125.053 698.198,-129.806 692.369,-126.449 699.749,-134.56 699.749,-134.56"/>
</g>
<!-- Order&#45;&gt;Product -->
<g id="edge8" class="edge"><title>Order&#45;&gt;Product</title>
<path fill="none" stroke="#0219f9" d="M690.68,-729.675C661.274,-669.998 625.694,-597.79 596.94,-539.437"/>
<polygon fill="#0219f9" stroke="#0219f9" points="690.78,-729.876 691.163,-740.835 692.99,-734.361 695.2,-738.846 695.2,-738.846 695.2,-738.846 692.99,-734.361 699.236,-736.857 690.78,-729.876 690.78,-729.876"/>
<polygon fill="#0219f9" stroke="#0219f9" points="596.806,-539.165 596.423,-528.206 594.596,-534.68 592.386,-530.195 592.386,-530.195 592.386,-530.195 594.596,-534.68 588.35,-532.184 596.806,-539.165 596.806,-539.165"/>
</g>
<!-- OrderEmployee -->
<g id="node11" class="node"><title>OrderEmployee</title>
<polyline fill="none" stroke="black" points="854.5,-1 1139.5,-1 "/>
<path fill="none" stroke="black" d="M1139.5,-1C1145.5,-1 1151.5,-7 1151.5,-13"/>
<polyline fill="none" stroke="black" points="1151.5,-13 1151.5,-113 "/>
<path fill="none" stroke="black" d="M1151.5,-113C1151.5,-119 1145.5,-125 1139.5,-125"/>
<polyline fill="none" stroke="black" points="1139.5,-125 854.5,-125 "/>
<path fill="none" stroke="black" d="M854.5,-125C848.5,-125 842.5,-119 842.5,-113"/>
<polyline fill="none" stroke="black" points="842.5,-113 842.5,-13 "/>
<path fill="none" stroke="black" d="M842.5,-13C842.5,-7 848.5,-1 854.5,-1"/>
<text text-anchor="middle" x="997" y="-108.4" font-family="Times Roman,serif" font-size="14.00">OrderEmployee</text>
<polyline fill="none" stroke="black" points="842.5,-99 1151.5,-99 "/>
<text text-anchor="start" x="850.5" y="-82.4" font-family="Times Roman,serif" font-size="14.00">id :integer</text>
<text text-anchor="start" x="850.5" y="-64.4" font-family="Times Roman,serif" font-size="14.00">order_id :integer</text>
<text text-anchor="start" x="850.5" y="-46.4" font-family="Times Roman,serif" font-size="14.00">employee_id :integer</text>
<text text-anchor="start" x="850.5" y="-28.4" font-family="Times Roman,serif" font-size="14.00">created_at :timestamp without time zone</text>
<text text-anchor="start" x="850.5" y="-10.4" font-family="Times Roman,serif" font-size="14.00">updated_at :timestamp without time zone</text>
</g>
<!-- Order&#45;&gt;OrderEmployee -->
<g id="edge10" class="edge"><title>Order&#45;&gt;OrderEmployee</title>
<path fill="none" stroke="#5d700e" d="M748.399,-730.786C749.97,-548.102 757.072,-207.853 788,-162 795.252,-151.249 812.152,-139.62 833.37,-128.24"/>
<ellipse fill="none" stroke="#5d700e" cx="748.366" cy="-734.827" rx="4" ry="4"/>
<polygon fill="#5d700e" stroke="#5d700e" points="833.502,-128.172 844.45,-127.545 837.937,-125.863 842.372,-123.554 842.372,-123.554 842.372,-123.554 837.937,-125.863 840.294,-119.562 833.502,-128.172 833.502,-128.172"/>
</g>
<!-- Employee -->
<g id="node12" class="node"><title>Employee</title>
<polyline fill="none" stroke="black" points="809,-163 1183,-163 "/>
<path fill="none" stroke="black" d="M1183,-163C1189,-163 1195,-169 1195,-175"/>
<polyline fill="none" stroke="black" points="1195,-175 1195,-689 "/>
<path fill="none" stroke="black" d="M1195,-689C1195,-695 1189,-701 1183,-701"/>
<polyline fill="none" stroke="black" points="1183,-701 809,-701 "/>
<path fill="none" stroke="black" d="M809,-701C803,-701 797,-695 797,-689"/>
<polyline fill="none" stroke="black" points="797,-689 797,-175 "/>
<path fill="none" stroke="black" d="M797,-175C797,-169 803,-163 809,-163"/>
<text text-anchor="middle" x="996" y="-684.4" font-family="Times Roman,serif" font-size="14.00">Employee</text>
<polyline fill="none" stroke="black" points="797,-675 1195,-675 "/>
<text text-anchor="start" x="805" y="-658.4" font-family="Times Roman,serif" font-size="14.00">id :integer</text>
<text text-anchor="start" x="805" y="-640.4" font-family="Times Roman,serif" font-size="14.00">email :character varying</text>
<text text-anchor="start" x="805" y="-622.4" font-family="Times Roman,serif" font-size="14.00">encrypted_password :character varying</text>
<text text-anchor="start" x="805" y="-604.4" font-family="Times Roman,serif" font-size="14.00">reset_password_token :character varying</text>
<text text-anchor="start" x="805" y="-586.4" font-family="Times Roman,serif" font-size="14.00">reset_password_sent_at :timestamp without time zone</text>
<text text-anchor="start" x="805" y="-568.4" font-family="Times Roman,serif" font-size="14.00">remember_created_at :timestamp without time zone</text>
<text text-anchor="start" x="805" y="-550.4" font-family="Times Roman,serif" font-size="14.00">sign_in_count :integer</text>
<text text-anchor="start" x="805" y="-532.4" font-family="Times Roman,serif" font-size="14.00">current_sign_in_at :timestamp without time zone</text>
<text text-anchor="start" x="805" y="-514.4" font-family="Times Roman,serif" font-size="14.00">last_sign_in_at :timestamp without time zone</text>
<text text-anchor="start" x="805" y="-496.4" font-family="Times Roman,serif" font-size="14.00">current_sign_in_ip :inet</text>
<text text-anchor="start" x="805" y="-478.4" font-family="Times Roman,serif" font-size="14.00">last_sign_in_ip :inet</text>
<text text-anchor="start" x="805" y="-460.4" font-family="Times Roman,serif" font-size="14.00">created_at :timestamp without time zone</text>
<text text-anchor="start" x="805" y="-442.4" font-family="Times Roman,serif" font-size="14.00">updated_at :timestamp without time zone</text>
<text text-anchor="start" x="805" y="-424.4" font-family="Times Roman,serif" font-size="14.00">name :character varying</text>
<text text-anchor="start" x="805" y="-406.4" font-family="Times Roman,serif" font-size="14.00">lastname :character varying</text>
<text text-anchor="start" x="805" y="-388.4" font-family="Times Roman,serif" font-size="14.00">phone :character varying</text>
<text text-anchor="start" x="805" y="-370.4" font-family="Times Roman,serif" font-size="14.00">emergencyphone :character varying</text>
<text text-anchor="start" x="805" y="-352.4" font-family="Times Roman,serif" font-size="14.00">rut :character varying</text>
<text text-anchor="start" x="805" y="-334.4" font-family="Times Roman,serif" font-size="14.00">bday :date</text>
<text text-anchor="start" x="805" y="-316.4" font-family="Times Roman,serif" font-size="14.00">afp :character varying</text>
<text text-anchor="start" x="805" y="-298.4" font-family="Times Roman,serif" font-size="14.00">insurance :character varying</text>
<text text-anchor="start" x="805" y="-280.4" font-family="Times Roman,serif" font-size="14.00">genre :character varying</text>
<text text-anchor="start" x="805" y="-262.4" font-family="Times Roman,serif" font-size="14.00">position :character varying</text>
<text text-anchor="start" x="805" y="-244.4" font-family="Times Roman,serif" font-size="14.00">bike :character varying</text>
<text text-anchor="start" x="805" y="-226.4" font-family="Times Roman,serif" font-size="14.00">bikeplate :character varying</text>
<text text-anchor="start" x="805" y="-208.4" font-family="Times Roman,serif" font-size="14.00">bank :character varying</text>
<text text-anchor="start" x="805" y="-190.4" font-family="Times Roman,serif" font-size="14.00">accountnumber :integer</text>
<text text-anchor="start" x="805" y="-172.4" font-family="Times Roman,serif" font-size="14.00">accounttype :character varying</text>
</g>
<!-- Order&#45;&gt;Employee -->
<g id="edge12" class="edge"><title>Order&#45;&gt;Employee</title>
<path fill="none" stroke="#6989af" d="M817.462,-730.043C821.372,-723.516 825.373,-716.838 829.443,-710.043"/>
<polygon fill="#6989af" stroke="#6989af" points="817.328,-730.268 808.328,-736.534 814.758,-734.557 812.189,-738.846 812.189,-738.846 812.189,-738.846 814.758,-734.557 816.049,-741.159 817.328,-730.268 817.328,-730.268"/>
<polygon fill="#6989af" stroke="#6989af" points="829.495,-709.956 838.494,-703.69 832.064,-705.667 834.634,-701.378 834.634,-701.378 834.634,-701.378 832.064,-705.667 830.773,-699.065 829.495,-709.956 829.495,-709.956"/>
</g>
<!-- Payment -->
<g id="node4" class="node"><title>Payment</title>
<polyline fill="none" stroke="black" points="279.5,-1000 564.5,-1000 "/>
<path fill="none" stroke="black" d="M564.5,-1000C570.5,-1000 576.5,-1006 576.5,-1012"/>
<polyline fill="none" stroke="black" points="576.5,-1012 576.5,-1166 "/>
<path fill="none" stroke="black" d="M576.5,-1166C576.5,-1172 570.5,-1178 564.5,-1178"/>
<polyline fill="none" stroke="black" points="564.5,-1178 279.5,-1178 "/>
<path fill="none" stroke="black" d="M279.5,-1178C273.5,-1178 267.5,-1172 267.5,-1166"/>
<polyline fill="none" stroke="black" points="267.5,-1166 267.5,-1012 "/>
<path fill="none" stroke="black" d="M267.5,-1012C267.5,-1006 273.5,-1000 279.5,-1000"/>
<text text-anchor="middle" x="422" y="-1161.4" font-family="Times Roman,serif" font-size="14.00">Payment</text>
<polyline fill="none" stroke="black" points="267.5,-1152 576.5,-1152 "/>
<text text-anchor="start" x="275.5" y="-1135.4" font-family="Times Roman,serif" font-size="14.00">id :integer</text>
<text text-anchor="start" x="275.5" y="-1117.4" font-family="Times Roman,serif" font-size="14.00">name :character varying</text>
<text text-anchor="start" x="275.5" y="-1099.4" font-family="Times Roman,serif" font-size="14.00">amount :integer</text>
<text text-anchor="start" x="275.5" y="-1081.4" font-family="Times Roman,serif" font-size="14.00">ordernumber :integer</text>
<text text-anchor="start" x="275.5" y="-1063.4" font-family="Times Roman,serif" font-size="14.00">tpye :character varying</text>
<text text-anchor="start" x="275.5" y="-1045.4" font-family="Times Roman,serif" font-size="14.00">status :character varying</text>
<text text-anchor="start" x="275.5" y="-1027.4" font-family="Times Roman,serif" font-size="14.00">created_at :timestamp without time zone</text>
<text text-anchor="start" x="275.5" y="-1009.4" font-family="Times Roman,serif" font-size="14.00">updated_at :timestamp without time zone</text>
</g>
<!-- Payment&#45;&gt;Order -->
<g id="edge14" class="edge"><title>Payment&#45;&gt;Order</title>
<path fill="none" stroke="#501e05" d="M548.281,-994.871C563.936,-983.201 580.068,-971.177 596.057,-959.258"/>
<ellipse fill="none" stroke="#501e05" cx="544.746" cy="-997.505" rx="4.00002" ry="4.00002"/>
<polygon fill="#501e05" stroke="#501e05" points="596.384,-959.014 607.091,-956.646 600.393,-956.026 604.402,-953.038 604.402,-953.038 604.402,-953.038 600.393,-956.026 601.713,-949.43 596.384,-959.014 596.384,-959.014"/>
</g>
<!-- Zone -->
<g id="node5" class="node"><title>Zone</title>
<polyline fill="none" stroke="black" points="605.5,-1009 890.5,-1009 "/>
<path fill="none" stroke="black" d="M890.5,-1009C896.5,-1009 902.5,-1015 902.5,-1021"/>
<polyline fill="none" stroke="black" points="902.5,-1021 902.5,-1157 "/>
<path fill="none" stroke="black" d="M902.5,-1157C902.5,-1163 896.5,-1169 890.5,-1169"/>
<polyline fill="none" stroke="black" points="890.5,-1169 605.5,-1169 "/>
<path fill="none" stroke="black" d="M605.5,-1169C599.5,-1169 593.5,-1163 593.5,-1157"/>
<polyline fill="none" stroke="black" points="593.5,-1157 593.5,-1021 "/>
<path fill="none" stroke="black" d="M593.5,-1021C593.5,-1015 599.5,-1009 605.5,-1009"/>
<text text-anchor="middle" x="748" y="-1152.4" font-family="Times Roman,serif" font-size="14.00">Zone</text>
<polyline fill="none" stroke="black" points="593.5,-1143 902.5,-1143 "/>
<text text-anchor="start" x="601.5" y="-1126.4" font-family="Times Roman,serif" font-size="14.00">id :integer</text>
<text text-anchor="start" x="601.5" y="-1108.4" font-family="Times Roman,serif" font-size="14.00">name :character varying</text>
<text text-anchor="start" x="601.5" y="-1090.4" font-family="Times Roman,serif" font-size="14.00">price :integer</text>
<text text-anchor="start" x="601.5" y="-1072.4" font-family="Times Roman,serif" font-size="14.00">description :character varying</text>
<text text-anchor="start" x="601.5" y="-1054.4" font-family="Times Roman,serif" font-size="14.00">dots :character varying</text>
<text text-anchor="start" x="601.5" y="-1036.4" font-family="Times Roman,serif" font-size="14.00">created_at :timestamp without time zone</text>
<text text-anchor="start" x="601.5" y="-1018.4" font-family="Times Roman,serif" font-size="14.00">updated_at :timestamp without time zone</text>
</g>
<!-- Zone&#45;&gt;Order -->
<g id="edge16" class="edge"><title>Zone&#45;&gt;Order</title>
<path fill="none" stroke="#bf04fb" d="M748,-1000.73C748,-988.51 748,-975.8 748,-963.152"/>
<ellipse fill="none" stroke="#bf04fb" cx="748" cy="-1004.76" rx="4" ry="4"/>
<polygon fill="#bf04fb" stroke="#bf04fb" points="748,-963.032 752.5,-953.032 748,-958.032 748,-953.032 748,-953.032 748,-953.032 748,-958.032 743.5,-953.032 748,-963.032 748,-963.032"/>
</g>
<!-- ApplicationRecord -->
<g id="node6" class="node"><title>ApplicationRecord</title>
<ellipse fill="none" stroke="black" cx="1344" cy="-1089" rx="97.7889" ry="18.3848"/>
<text text-anchor="middle" x="1344" y="-1085.4" font-family="Times Roman,serif" font-size="14.00">ApplicationRecord</text>
</g>
<!-- Product&#45;&gt;OrderProduct -->
<g id="edge20" class="edge"><title>Product&#45;&gt;OrderProduct</title>
<path fill="none" stroke="#5f1b2b" d="M580.565,-325.759C601.656,-264.478 627.614,-189.059 646.301,-134.763"/>
<ellipse fill="none" stroke="#5f1b2b" cx="579.169" cy="-329.817" rx="4.00001" ry="4.00001"/>
<polygon fill="#5f1b2b" stroke="#5f1b2b" points="646.331,-134.675 653.841,-126.684 647.959,-129.947 649.586,-125.219 649.586,-125.219 649.586,-125.219 647.959,-129.947 645.331,-123.755 646.331,-134.675 646.331,-134.675"/>
</g>
<!-- Product&#45;&gt;ProductCategory -->
<g id="edge18" class="edge"><title>Product&#45;&gt;ProductCategory</title>
<path fill="none" stroke="#862c5c" d="M487.132,-326.551C453.878,-264.889 412.79,-188.702 383.358,-134.127"/>
<ellipse fill="none" stroke="#862c5c" cx="489.034" cy="-330.079" rx="4.00002" ry="4.00002"/>
<polygon fill="#862c5c" stroke="#862c5c" points="383.301,-134.021 382.515,-123.083 380.928,-129.62 378.555,-125.219 378.555,-125.219 378.555,-125.219 380.928,-129.62 374.594,-127.355 383.301,-134.021 383.301,-134.021"/>
</g>
<!-- Client -->
<g id="node10" class="node"><title>Client</title>
<polyline fill="none" stroke="black" points="931.5,-991 1216.5,-991 "/>
<path fill="none" stroke="black" d="M1216.5,-991C1222.5,-991 1228.5,-997 1228.5,-1003"/>
<polyline fill="none" stroke="black" points="1228.5,-1003 1228.5,-1175 "/>
<path fill="none" stroke="black" d="M1228.5,-1175C1228.5,-1181 1222.5,-1187 1216.5,-1187"/>
<polyline fill="none" stroke="black" points="1216.5,-1187 931.5,-1187 "/>
<path fill="none" stroke="black" d="M931.5,-1187C925.5,-1187 919.5,-1181 919.5,-1175"/>
<polyline fill="none" stroke="black" points="919.5,-1175 919.5,-1003 "/>
<path fill="none" stroke="black" d="M919.5,-1003C919.5,-997 925.5,-991 931.5,-991"/>
<text text-anchor="middle" x="1074" y="-1170.4" font-family="Times Roman,serif" font-size="14.00">Client</text>
<polyline fill="none" stroke="black" points="919.5,-1161 1228.5,-1161 "/>
<text text-anchor="start" x="927.5" y="-1144.4" font-family="Times Roman,serif" font-size="14.00">id :integer</text>
<text text-anchor="start" x="927.5" y="-1126.4" font-family="Times Roman,serif" font-size="14.00">name :character varying</text>
<text text-anchor="start" x="927.5" y="-1108.4" font-family="Times Roman,serif" font-size="14.00">address :character varying</text>
<text text-anchor="start" x="927.5" y="-1090.4" font-family="Times Roman,serif" font-size="14.00">email :character varying</text>
<text text-anchor="start" x="927.5" y="-1072.4" font-family="Times Roman,serif" font-size="14.00">phone :character varying</text>
<text text-anchor="start" x="927.5" y="-1054.4" font-family="Times Roman,serif" font-size="14.00">latitude :character varying</text>
<text text-anchor="start" x="927.5" y="-1036.4" font-family="Times Roman,serif" font-size="14.00">longitude :character varying</text>
<text text-anchor="start" x="927.5" y="-1018.4" font-family="Times Roman,serif" font-size="14.00">created_at :timestamp without time zone</text>
<text text-anchor="start" x="927.5" y="-1000.4" font-family="Times Roman,serif" font-size="14.00">updated_at :timestamp without time zone</text>
</g>
<!-- Client&#45;&gt;Order -->
<g id="edge22" class="edge"><title>Client&#45;&gt;Order</title>
<path fill="none" stroke="#4d8cbb" d="M935.667,-985.887C923.825,-977.059 911.804,-968.1 899.864,-959.199"/>
<ellipse fill="none" stroke="#4d8cbb" cx="939.136" cy="-988.472" rx="4.00002" ry="4.00002"/>
<polygon fill="#4d8cbb" stroke="#4d8cbb" points="899.632,-959.026 894.303,-949.442 895.623,-956.038 891.614,-953.05 891.614,-953.05 891.614,-953.05 895.623,-956.038 888.924,-956.658 899.632,-959.026 899.632,-959.026"/>
</g>
<!-- Employee&#45;&gt;OrderEmployee -->
<g id="edge24" class="edge"><title>Employee&#45;&gt;OrderEmployee</title>
<path fill="none" stroke="#31bce7" d="M996.751,-154.716C996.77,-147.982 996.787,-141.471 996.804,-135.236"/>
<ellipse fill="none" stroke="#31bce7" cx="996.74" cy="-158.857" rx="4" ry="4"/>
<polygon fill="#31bce7" stroke="#31bce7" points="996.805,-135.013 1001.33,-125.025 996.818,-130.013 996.832,-125.013 996.832,-125.013 996.832,-125.013 996.818,-130.013 992.332,-125 996.805,-135.013 996.805,-135.013"/>
</g>
</g>
</svg>
