<?xml version="1.0" encoding="UTF-8" standalone="no"?>
<!DOCTYPE svg PUBLIC "-//W3C//DTD SVG 1.1//EN"
 "http://www.w3.org/Graphics/SVG/1.1/DTD/svg11.dtd">
<!-- Generated by graphviz version 2.26.3 (20100126.1600)
 -->
<!-- Title: models_diagram Pages: 1 -->
<svg width="788pt" height="324pt"
 viewBox="0.00 0.00 788.00 324.00" xmlns="http://www.w3.org/2000/svg" xmlns:xlink="http://www.w3.org/1999/xlink">
<g id="graph1" class="graph" transform="scale(1 1) rotate(0) translate(4 320)">
<title>models_diagram</title>
<polygon fill="none" stroke="none" points="-4,5 -4,-320 785,-320 785,5 -4,5"/>
<!-- _diagram_info -->
<g id="node1" class="node"><title>_diagram_info</title>
<text text-anchor="start" x="8" y="-299.8" font-family="Times Roman,serif" font-size="13.00">Models diagram</text>
<text text-anchor="start" x="8" y="-282.8" font-family="Times Roman,serif" font-size="13.00">Date: Dec 03 2016 &#45; 00:12</text>
<text text-anchor="start" x="8" y="-265.8" font-family="Times Roman,serif" font-size="13.00">Migration version: 20161130044937</text>
<text text-anchor="start" x="8" y="-248.8" font-family="Times Roman,serif" font-size="13.00">Generated by RailRoady 1.5.2</text>
<text text-anchor="start" x="8" y="-231.8" font-family="Times Roman,serif" font-size="13.00">http://railroady.prestonlee.com</text>
</g>
<!-- Category -->
<g id="node2" class="node"><title>Category</title>
<ellipse fill="none" stroke="black" cx="305" cy="-167" rx="56.0679" ry="18.3848"/>
<text text-anchor="middle" x="305" y="-163.4" font-family="Times Roman,serif" font-size="14.00">Category</text>
</g>
<!-- Product -->
<g id="node8" class="node"><title>Product</title>
<ellipse fill="none" stroke="black" cx="364" cy="-93" rx="48.9975" ry="18.3848"/>
<text text-anchor="middle" x="364" y="-89.4" font-family="Times Roman,serif" font-size="14.00">Product</text>
</g>
<!-- Category&#45;&gt;Product -->
<g id="edge4" class="edge"><title>Category&#45;&gt;Product</title>
<path fill="none" stroke="#178424" d="M325.709,-141.027C331.447,-133.829 337.674,-126.018 343.407,-118.829"/>
<polygon fill="#178424" stroke="#178424" points="325.516,-141.268 315.764,-146.281 322.399,-145.177 319.282,-149.087 319.282,-149.087 319.282,-149.087 322.399,-145.177 322.801,-151.892 325.516,-141.268 325.516,-141.268"/>
<polygon fill="#178424" stroke="#178424" points="343.615,-118.567 353.368,-113.554 346.732,-114.658 349.849,-110.748 349.849,-110.748 349.849,-110.748 346.732,-114.658 346.331,-107.943 343.615,-118.567 343.615,-118.567"/>
</g>
<!-- ProductCategory -->
<g id="node9" class="node"><title>ProductCategory</title>
<ellipse fill="none" stroke="black" cx="260" cy="-19" rx="94.0452" ry="18.3848"/>
<text text-anchor="middle" x="260" y="-15.4" font-family="Times Roman,serif" font-size="14.00">ProductCategory</text>
</g>
<!-- Category&#45;&gt;ProductCategory -->
<g id="edge2" class="edge"><title>Category&#45;&gt;ProductCategory</title>
<path fill="none" stroke="#705f05" d="M297.006,-140.707C289.023,-114.453 276.794,-74.2328 268.603,-47.2947"/>
<ellipse fill="none" stroke="#705f05" cx="298.228" cy="-144.728" rx="4.00001" ry="4.00001"/>
<polygon fill="#705f05" stroke="#705f05" points="268.588,-47.245 269.984,-36.3684 267.134,-42.4613 265.679,-37.6775 265.679,-37.6775 265.679,-37.6775 267.134,-42.4613 261.374,-38.9866 268.588,-47.245 268.588,-47.245"/>
</g>
<!-- Order -->
<g id="node3" class="node"><title>Order</title>
<ellipse fill="none" stroke="black" cx="431" cy="-167" rx="39.0967" ry="18.3848"/>
<text text-anchor="middle" x="431" y="-163.4" font-family="Times Roman,serif" font-size="14.00">Order</text>
</g>
<!-- OrderProduct -->
<g id="node7" class="node"><title>OrderProduct</title>
<ellipse fill="none" stroke="black" cx="450" cy="-19" rx="77.7817" ry="18.3848"/>
<text text-anchor="middle" x="450" y="-15.4" font-family="Times Roman,serif" font-size="14.00">OrderProduct</text>
</g>
<!-- Order&#45;&gt;OrderProduct -->
<g id="edge6" class="edge"><title>Order&#45;&gt;OrderProduct</title>
<path fill="none" stroke="#95a5f8" d="M434.466,-140.006C437.815,-113.917 442.872,-74.5269 446.298,-47.8341"/>
<ellipse fill="none" stroke="#95a5f8" cx="433.916" cy="-144.288" rx="4.00001" ry="4.00001"/>
<polygon fill="#95a5f8" stroke="#95a5f8" points="446.34,-47.5107 452.077,-38.1651 446.976,-42.5514 447.613,-37.5921 447.613,-37.5921 447.613,-37.5921 446.976,-42.5514 443.15,-37.0191 446.34,-47.5107 446.34,-47.5107"/>
</g>
<!-- Order&#45;&gt;Product -->
<g id="edge8" class="edge"><title>Order&#45;&gt;Product</title>
<path fill="none" stroke="#0c1bd0" d="M408.589,-142.247C401.543,-134.465 393.758,-125.868 386.693,-118.064"/>
<polygon fill="#0c1bd0" stroke="#0c1bd0" points="408.749,-142.424 412.125,-152.857 412.105,-146.13 415.46,-149.837 415.46,-149.837 415.46,-149.837 412.105,-146.13 418.796,-146.817 408.749,-142.424 408.749,-142.424"/>
<polygon fill="#0c1bd0" stroke="#0c1bd0" points="386.632,-117.997 383.256,-107.564 383.276,-114.29 379.921,-110.584 379.921,-110.584 379.921,-110.584 383.276,-114.29 376.585,-113.604 386.632,-117.997 386.632,-117.997"/>
</g>
<!-- Payment -->
<g id="node4" class="node"><title>Payment</title>
<ellipse fill="none" stroke="black" cx="322" cy="-269" rx="53.9477" ry="18.3848"/>
<text text-anchor="middle" x="322" y="-265.4" font-family="Times Roman,serif" font-size="14.00">Payment</text>
</g>
<!-- Payment&#45;&gt;Order -->
<g id="edge10" class="edge"><title>Payment&#45;&gt;Order</title>
<path fill="none" stroke="#d410a7" d="M347.005,-245.6C364.578,-229.156 388.005,-207.234 405.653,-190.719"/>
<ellipse fill="none" stroke="#d410a7" cx="343.907" cy="-248.5" rx="4.00002" ry="4.00002"/>
<polygon fill="#d410a7" stroke="#d410a7" points="406.011,-190.384 416.388,-186.837 409.662,-186.967 413.313,-183.551 413.313,-183.551 413.313,-183.551 409.662,-186.967 410.238,-180.265 406.011,-190.384 406.011,-190.384"/>
</g>
<!-- Zone -->
<g id="node5" class="node"><title>Zone</title>
<ellipse fill="none" stroke="black" cx="431" cy="-269" rx="36.7696" ry="18.3848"/>
<text text-anchor="middle" x="431" y="-265.4" font-family="Times Roman,serif" font-size="14.00">Zone</text>
</g>
<!-- Zone&#45;&gt;Order -->
<g id="edge12" class="edge"><title>Zone&#45;&gt;Order</title>
<path fill="none" stroke="#5be76a" d="M431,-242.015C431,-227.835 431,-210.445 431,-195.98"/>
<ellipse fill="none" stroke="#5be76a" cx="431" cy="-246.292" rx="4" ry="4"/>
<polygon fill="#5be76a" stroke="#5be76a" points="431,-195.59 435.5,-185.59 431,-190.59 431,-185.59 431,-185.59 431,-185.59 431,-190.59 426.5,-185.59 431,-195.59 431,-195.59"/>
</g>
<!-- ApplicationRecord -->
<g id="node6" class="node"><title>ApplicationRecord</title>
<ellipse fill="none" stroke="black" cx="682" cy="-269" rx="97.7889" ry="18.3848"/>
<text text-anchor="middle" x="682" y="-265.4" font-family="Times Roman,serif" font-size="14.00">ApplicationRecord</text>
</g>
<!-- Product&#45;&gt;OrderProduct -->
<g id="edge16" class="edge"><title>Product&#45;&gt;OrderProduct</title>
<path fill="none" stroke="#a19b90" d="M390.261,-70.4031C400.141,-61.9022 411.417,-52.1992 421.492,-43.5304"/>
<ellipse fill="none" stroke="#a19b90" cx="386.978" cy="-73.2279" rx="4.00002" ry="4.00002"/>
<polygon fill="#a19b90" stroke="#a19b90" points="421.684,-43.365 432.199,-40.2536 425.474,-40.1038 429.264,-36.8426 429.264,-36.8426 429.264,-36.8426 425.474,-40.1038 426.329,-33.4315 421.684,-43.365 421.684,-43.365"/>
</g>
<!-- Product&#45;&gt;ProductCategory -->
<g id="edge14" class="edge"><title>Product&#45;&gt;ProductCategory</title>
<path fill="none" stroke="#efe11b" d="M334.062,-71.6979C321.372,-62.6683 306.529,-52.1075 293.478,-42.8208"/>
<ellipse fill="none" stroke="#efe11b" cx="337.66" cy="-74.258" rx="4.00002" ry="4.00002"/>
<polygon fill="#efe11b" stroke="#efe11b" points="293.348,-42.7286 287.809,-33.2645 289.274,-39.8298 285.2,-36.931 285.2,-36.931 285.2,-36.931 289.274,-39.8298 282.591,-40.5976 293.348,-42.7286 293.348,-42.7286"/>
</g>
<!-- Client -->
<g id="node10" class="node"><title>Client</title>
<ellipse fill="none" stroke="black" cx="526" cy="-269" rx="39.8075" ry="18.3848"/>
<text text-anchor="middle" x="526" y="-265.4" font-family="Times Roman,serif" font-size="14.00">Client</text>
</g>
<!-- Client&#45;&gt;Order -->
<g id="edge18" class="edge"><title>Client&#45;&gt;Order</title>
<path fill="none" stroke="#a6a6fb" d="M504.23,-245.626C489.199,-229.488 469.245,-208.063 453.963,-191.655"/>
<ellipse fill="none" stroke="#a6a6fb" cx="507.158" cy="-248.77" rx="4.00002" ry="4.00002"/>
<polygon fill="#a6a6fb" stroke="#a6a6fb" points="453.693,-191.365 450.17,-180.98 450.285,-187.706 446.877,-184.047 446.877,-184.047 446.877,-184.047 450.285,-187.706 443.584,-187.114 453.693,-191.365 453.693,-191.365"/>
</g>
</g>
</svg>
