<?xml version="1.0" encoding="UTF-8" standalone="no"?>
<!DOCTYPE svg PUBLIC "-//W3C//DTD SVG 1.1//EN"
 "http://www.w3.org/Graphics/SVG/1.1/DTD/svg11.dtd">
<!-- Generated by graphviz version 2.26.3 (20100126.1600)
 -->
<!-- Title: models_diagram Pages: 1 -->
<svg width="788pt" height="324pt"
 viewBox="0.00 0.00 788.00 324.00" xmlns="http://www.w3.org/2000/svg" xmlns:xlink="http://www.w3.org/1999/xlink">
<g id="graph1" class="graph" transform="scale(1 1) rotate(0) translate(4 320)">
<title>models_diagram</title>
<polygon fill="none" stroke="none" points="-4,5 -4,-320 785,-320 785,5 -4,5"/>
<!-- _diagram_info -->
<g id="node1" class="node"><title>_diagram_info</title>
<text text-anchor="start" x="8" y="-299.8" font-family="Times Roman,serif" font-size="13.00">Models diagram</text>
<text text-anchor="start" x="8" y="-282.8" font-family="Times Roman,serif" font-size="13.00">Date: Dec 03 2016 &#45; 01:50</text>
<text text-anchor="start" x="8" y="-265.8" font-family="Times Roman,serif" font-size="13.00">Migration version: 20161203044756</text>
<text text-anchor="start" x="8" y="-248.8" font-family="Times Roman,serif" font-size="13.00">Generated by RailRoady 1.5.2</text>
<text text-anchor="start" x="8" y="-231.8" font-family="Times Roman,serif" font-size="13.00">http://railroady.prestonlee.com</text>
</g>
<!-- Category -->
<g id="node2" class="node"><title>Category</title>
<ellipse fill="none" stroke="black" cx="284" cy="-167" rx="56.0679" ry="18.3848"/>
<text text-anchor="middle" x="284" y="-163.4" font-family="Times Roman,serif" font-size="14.00">Category</text>
</g>
<!-- Product -->
<g id="node8" class="node"><title>Product</title>
<ellipse fill="none" stroke="black" cx="315" cy="-93" rx="48.9975" ry="18.3848"/>
<text text-anchor="middle" x="315" y="-89.4" font-family="Times Roman,serif" font-size="14.00">Product</text>
</g>
<!-- Category&#45;&gt;Product -->
<g id="edge4" class="edge"><title>Category&#45;&gt;Product</title>
<path fill="none" stroke="#996ec8" d="M295.696,-139.081C298.179,-133.152 300.802,-126.893 303.286,-120.963"/>
<polygon fill="#996ec8" stroke="#996ec8" points="295.687,-139.103 287.672,-146.588 293.755,-143.715 291.823,-148.327 291.823,-148.327 291.823,-148.327 293.755,-143.715 295.973,-150.065 295.687,-139.103 295.687,-139.103"/>
<polygon fill="#996ec8" stroke="#996ec8" points="303.423,-120.634 311.438,-113.15 305.355,-116.023 307.287,-111.411 307.287,-111.411 307.287,-111.411 305.355,-116.023 303.137,-109.672 303.423,-120.634 303.423,-120.634"/>
</g>
<!-- ProductCategory -->
<g id="node9" class="node"><title>ProductCategory</title>
<ellipse fill="none" stroke="black" cx="204" cy="-19" rx="94.0452" ry="18.3848"/>
<text text-anchor="middle" x="204" y="-15.4" font-family="Times Roman,serif" font-size="14.00">ProductCategory</text>
</g>
<!-- Category&#45;&gt;ProductCategory -->
<g id="edge2" class="edge"><title>Category&#45;&gt;ProductCategory</title>
<path fill="none" stroke="#50ca1e" d="M270.196,-141.463C255.906,-115.027 233.655,-73.8627 218.955,-46.6673"/>
<ellipse fill="none" stroke="#50ca1e" cx="272.128" cy="-145.036" rx="4.00002" ry="4.00002"/>
<polygon fill="#50ca1e" stroke="#50ca1e" points="218.851,-46.4746 218.055,-35.5377 216.474,-42.076 214.096,-37.6775 214.096,-37.6775 214.096,-37.6775 216.474,-42.076 210.137,-39.8174 218.851,-46.4746 218.851,-46.4746"/>
</g>
<!-- Order -->
<g id="node3" class="node"><title>Order</title>
<ellipse fill="none" stroke="black" cx="431" cy="-167" rx="39.0967" ry="18.3848"/>
<text text-anchor="middle" x="431" y="-163.4" font-family="Times Roman,serif" font-size="14.00">Order</text>
</g>
<!-- OrderProduct -->
<g id="node7" class="node"><title>OrderProduct</title>
<ellipse fill="none" stroke="black" cx="394" cy="-19" rx="77.7817" ry="18.3848"/>
<text text-anchor="middle" x="394" y="-15.4" font-family="Times Roman,serif" font-size="14.00">OrderProduct</text>
</g>
<!-- Order&#45;&gt;OrderProduct -->
<g id="edge6" class="edge"><title>Order&#45;&gt;OrderProduct</title>
<path fill="none" stroke="#449d13" d="M424.427,-140.707C417.892,-114.568 407.897,-74.5869 401.163,-47.6515"/>
<ellipse fill="none" stroke="#449d13" cx="425.419" cy="-144.674" rx="4.00001" ry="4.00001"/>
<polygon fill="#449d13" stroke="#449d13" points="401.095,-47.3789 403.035,-36.5861 399.882,-42.5282 398.669,-37.6775 398.669,-37.6775 398.669,-37.6775 399.882,-42.5282 394.304,-38.769 401.095,-47.3789 401.095,-47.3789"/>
</g>
<!-- Order&#45;&gt;Product -->
<g id="edge8" class="edge"><title>Order&#45;&gt;Product</title>
<path fill="none" stroke="#219156" d="M399.066,-146.628C383.365,-136.612 364.447,-124.544 348.536,-114.394"/>
<polygon fill="#219156" stroke="#219156" points="399.095,-146.647 405.105,-155.819 403.31,-149.336 407.526,-152.025 407.526,-152.025 407.526,-152.025 403.31,-149.336 409.946,-148.231 399.095,-146.647 399.095,-146.647"/>
<polygon fill="#219156" stroke="#219156" points="348.476,-114.355 342.465,-105.183 344.261,-111.666 340.045,-108.977 340.045,-108.977 340.045,-108.977 344.261,-111.666 337.625,-112.771 348.476,-114.355 348.476,-114.355"/>
</g>
<!-- OrderEmployee -->
<g id="node11" class="node"><title>OrderEmployee</title>
<ellipse fill="none" stroke="black" cx="577" cy="-19" rx="86.9741" ry="18.3848"/>
<text text-anchor="middle" x="577" y="-15.4" font-family="Times Roman,serif" font-size="14.00">OrderEmployee</text>
</g>
<!-- Order&#45;&gt;OrderEmployee -->
<g id="edge10" class="edge"><title>Order&#45;&gt;OrderEmployee</title>
<path fill="none" stroke="#d91a5f" d="M447.073,-142.131C460.449,-122.453 480.69,-94.9031 502,-74 513.725,-62.4989 527.974,-51.4541 540.889,-42.3189"/>
<ellipse fill="none" stroke="#d91a5f" cx="444.694" cy="-145.676" rx="4.00002" ry="4.00002"/>
<polygon fill="#d91a5f" stroke="#d91a5f" points="540.921,-42.2968 551.704,-40.3061 545.032,-39.4513 549.143,-36.6059 549.143,-36.6059 549.143,-36.6059 545.032,-39.4513 546.583,-32.9056 540.921,-42.2968 540.921,-42.2968"/>
</g>
<!-- Employee -->
<g id="node12" class="node"><title>Employee</title>
<ellipse fill="none" stroke="black" cx="569" cy="-93" rx="58.1882" ry="18.3848"/>
<text text-anchor="middle" x="569" y="-89.4" font-family="Times Roman,serif" font-size="14.00">Employee</text>
</g>
<!-- Order&#45;&gt;Employee -->
<g id="edge12" class="edge"><title>Order&#45;&gt;Employee</title>
<path fill="none" stroke="#905769" d="M465.913,-148.278C485.565,-137.74 510.144,-124.56 530.372,-113.713"/>
<polygon fill="#905769" stroke="#905769" points="465.77,-148.355 454.83,-149.115 461.363,-150.718 456.957,-153.081 456.957,-153.081 456.957,-153.081 461.363,-150.718 459.083,-157.047 465.77,-148.355 465.77,-148.355"/>
<polygon fill="#905769" stroke="#905769" points="530.514,-113.638 541.453,-112.878 534.92,-111.275 539.327,-108.912 539.327,-108.912 539.327,-108.912 534.92,-111.275 537.2,-104.946 530.514,-113.638 530.514,-113.638"/>
</g>
<!-- Payment -->
<g id="node4" class="node"><title>Payment</title>
<ellipse fill="none" stroke="black" cx="322" cy="-269" rx="53.9477" ry="18.3848"/>
<text text-anchor="middle" x="322" y="-265.4" font-family="Times Roman,serif" font-size="14.00">Payment</text>
</g>
<!-- Payment&#45;&gt;Order -->
<g id="edge14" class="edge"><title>Payment&#45;&gt;Order</title>
<path fill="none" stroke="#5dab72" d="M347.005,-245.6C364.578,-229.156 388.005,-207.234 405.653,-190.719"/>
<ellipse fill="none" stroke="#5dab72" cx="343.907" cy="-248.5" rx="4.00002" ry="4.00002"/>
<polygon fill="#5dab72" stroke="#5dab72" points="406.011,-190.384 416.388,-186.837 409.662,-186.967 413.313,-183.551 413.313,-183.551 413.313,-183.551 409.662,-186.967 410.238,-180.265 406.011,-190.384 406.011,-190.384"/>
</g>
<!-- Zone -->
<g id="node5" class="node"><title>Zone</title>
<ellipse fill="none" stroke="black" cx="431" cy="-269" rx="36.7696" ry="18.3848"/>
<text text-anchor="middle" x="431" y="-265.4" font-family="Times Roman,serif" font-size="14.00">Zone</text>
</g>
<!-- Zone&#45;&gt;Order -->
<g id="edge16" class="edge"><title>Zone&#45;&gt;Order</title>
<path fill="none" stroke="#88801a" d="M431,-242.015C431,-227.835 431,-210.445 431,-195.98"/>
<ellipse fill="none" stroke="#88801a" cx="431" cy="-246.292" rx="4" ry="4"/>
<polygon fill="#88801a" stroke="#88801a" points="431,-195.59 435.5,-185.59 431,-190.59 431,-185.59 431,-185.59 431,-185.59 431,-190.59 426.5,-185.59 431,-195.59 431,-195.59"/>
</g>
<!-- ApplicationRecord -->
<g id="node6" class="node"><title>ApplicationRecord</title>
<ellipse fill="none" stroke="black" cx="682" cy="-269" rx="97.7889" ry="18.3848"/>
<text text-anchor="middle" x="682" y="-265.4" font-family="Times Roman,serif" font-size="14.00">ApplicationRecord</text>
</g>
<!-- Product&#45;&gt;OrderProduct -->
<g id="edge20" class="edge"><title>Product&#45;&gt;OrderProduct</title>
<path fill="none" stroke="#08afb1" d="M339.394,-70.1496C348.257,-61.8478 358.314,-52.4271 367.361,-43.9529"/>
<ellipse fill="none" stroke="#08afb1" cx="336.242" cy="-73.1024" rx="4.00002" ry="4.00002"/>
<polygon fill="#08afb1" stroke="#08afb1" points="367.376,-43.9388 377.751,-40.3867 371.025,-40.5206 374.674,-37.1024 374.674,-37.1024 374.674,-37.1024 371.025,-40.5206 371.598,-33.8182 367.376,-43.9388 367.376,-43.9388"/>
</g>
<!-- Product&#45;&gt;ProductCategory -->
<g id="edge18" class="edge"><title>Product&#45;&gt;ProductCategory</title>
<path fill="none" stroke="#4715f9" d="M283.717,-72.1446C269.861,-62.9071 253.499,-51.9995 239.216,-42.4775"/>
<ellipse fill="none" stroke="#4715f9" cx="287.312" cy="-74.5416" rx="4.00002" ry="4.00002"/>
<polygon fill="#4715f9" stroke="#4715f9" points="238.953,-42.302 233.129,-33.0108 234.793,-39.5285 230.632,-36.755 230.632,-36.755 230.632,-36.755 234.793,-39.5285 228.136,-40.4992 238.953,-42.302 238.953,-42.302"/>
</g>
<!-- Client -->
<g id="node10" class="node"><title>Client</title>
<ellipse fill="none" stroke="black" cx="526" cy="-269" rx="39.8075" ry="18.3848"/>
<text text-anchor="middle" x="526" y="-265.4" font-family="Times Roman,serif" font-size="14.00">Client</text>
</g>
<!-- Client&#45;&gt;Order -->
<g id="edge22" class="edge"><title>Client&#45;&gt;Order</title>
<path fill="none" stroke="#7b22c9" d="M504.23,-245.626C489.199,-229.488 469.245,-208.063 453.963,-191.655"/>
<ellipse fill="none" stroke="#7b22c9" cx="507.158" cy="-248.77" rx="4.00002" ry="4.00002"/>
<polygon fill="#7b22c9" stroke="#7b22c9" points="453.693,-191.365 450.17,-180.98 450.285,-187.706 446.877,-184.047 446.877,-184.047 446.877,-184.047 450.285,-187.706 443.584,-187.114 453.693,-191.365 453.693,-191.365"/>
</g>
<!-- Employee&#45;&gt;OrderEmployee -->
<g id="edge24" class="edge"><title>Employee&#45;&gt;OrderEmployee</title>
<path fill="none" stroke="#2619ad" d="M571.886,-66.309C572.527,-60.3769 573.21,-54.0606 573.861,-48.0396"/>
<ellipse fill="none" stroke="#2619ad" cx="571.449" cy="-70.3498" rx="4.00001" ry="4.00001"/>
<polygon fill="#2619ad" stroke="#2619ad" points="573.907,-47.6094 579.456,-38.1511 574.444,-42.6384 574.982,-37.6674 574.982,-37.6674 574.982,-37.6674 574.444,-42.6384 570.508,-37.1836 573.907,-47.6094 573.907,-47.6094"/>
</g>
</g>
</svg>
