<?xml version="1.0" encoding="UTF-8" standalone="no"?>
<!DOCTYPE svg PUBLIC "-//W3C//DTD SVG 1.1//EN"
 "http://www.w3.org/Graphics/SVG/1.1/DTD/svg11.dtd">
<!-- Generated by graphviz version 2.26.3 (20100126.1600)
 -->
<!-- Title: models_diagram Pages: 1 -->
<svg width="1450pt" height="854pt"
 viewBox="0.00 0.00 1450.00 854.00" xmlns="http://www.w3.org/2000/svg" xmlns:xlink="http://www.w3.org/1999/xlink">
<g id="graph1" class="graph" transform="scale(1 1) rotate(0) translate(4 850)">
<title>models_diagram</title>
<polygon fill="none" stroke="none" points="-4,5 -4,-850 1447,-850 1447,5 -4,5"/>
<!-- _diagram_info -->
<g id="node1" class="node"><title>_diagram_info</title>
<text text-anchor="start" x="8" y="-777.8" font-family="Times Roman,serif" font-size="13.00">Models diagram</text>
<text text-anchor="start" x="8" y="-760.8" font-family="Times Roman,serif" font-size="13.00">Date: Dec 03 2016 &#45; 00:12</text>
<text text-anchor="start" x="8" y="-743.8" font-family="Times Roman,serif" font-size="13.00">Migration version: 20161130044937</text>
<text text-anchor="start" x="8" y="-726.8" font-family="Times Roman,serif" font-size="13.00">Generated by RailRoady 1.5.2</text>
<text text-anchor="start" x="8" y="-709.8" font-family="Times Roman,serif" font-size="13.00">http://railroady.prestonlee.com</text>
</g>
<!-- Category -->
<g id="node2" class="node"><title>Category</title>
<polyline fill="none" stroke="black" points="270.5,-442 555.5,-442 "/>
<path fill="none" stroke="black" d="M555.5,-442C561.5,-442 567.5,-448 567.5,-454"/>
<polyline fill="none" stroke="black" points="567.5,-454 567.5,-554 "/>
<path fill="none" stroke="black" d="M567.5,-554C567.5,-560 561.5,-566 555.5,-566"/>
<polyline fill="none" stroke="black" points="555.5,-566 270.5,-566 "/>
<path fill="none" stroke="black" d="M270.5,-566C264.5,-566 258.5,-560 258.5,-554"/>
<polyline fill="none" stroke="black" points="258.5,-554 258.5,-454 "/>
<path fill="none" stroke="black" d="M258.5,-454C258.5,-448 264.5,-442 270.5,-442"/>
<text text-anchor="middle" x="413" y="-549.4" font-family="Times Roman,serif" font-size="14.00">Category</text>
<polyline fill="none" stroke="black" points="258.5,-540 567.5,-540 "/>
<text text-anchor="start" x="266.5" y="-523.4" font-family="Times Roman,serif" font-size="14.00">id :integer</text>
<text text-anchor="start" x="266.5" y="-505.4" font-family="Times Roman,serif" font-size="14.00">name :character varying</text>
<text text-anchor="start" x="266.5" y="-487.4" font-family="Times Roman,serif" font-size="14.00">description :character varying</text>
<text text-anchor="start" x="266.5" y="-469.4" font-family="Times Roman,serif" font-size="14.00">created_at :timestamp without time zone</text>
<text text-anchor="start" x="266.5" y="-451.4" font-family="Times Roman,serif" font-size="14.00">updated_at :timestamp without time zone</text>
</g>
<!-- Product -->
<g id="node8" class="node"><title>Product</title>
<polyline fill="none" stroke="black" points="433.5,-163 718.5,-163 "/>
<path fill="none" stroke="black" d="M718.5,-163C724.5,-163 730.5,-169 730.5,-175"/>
<polyline fill="none" stroke="black" points="730.5,-175 730.5,-347 "/>
<path fill="none" stroke="black" d="M730.5,-347C730.5,-353 724.5,-359 718.5,-359"/>
<polyline fill="none" stroke="black" points="718.5,-359 433.5,-359 "/>
<path fill="none" stroke="black" d="M433.5,-359C427.5,-359 421.5,-353 421.5,-347"/>
<polyline fill="none" stroke="black" points="421.5,-347 421.5,-175 "/>
<path fill="none" stroke="black" d="M421.5,-175C421.5,-169 427.5,-163 433.5,-163"/>
<text text-anchor="middle" x="576" y="-342.4" font-family="Times Roman,serif" font-size="14.00">Product</text>
<polyline fill="none" stroke="black" points="421.5,-333 730.5,-333 "/>
<text text-anchor="start" x="429.5" y="-316.4" font-family="Times Roman,serif" font-size="14.00">id :integer</text>
<text text-anchor="start" x="429.5" y="-298.4" font-family="Times Roman,serif" font-size="14.00">name :character varying</text>
<text text-anchor="start" x="429.5" y="-280.4" font-family="Times Roman,serif" font-size="14.00">description :character varying</text>
<text text-anchor="start" x="429.5" y="-262.4" font-family="Times Roman,serif" font-size="14.00">cookingtime :integer</text>
<text text-anchor="start" x="429.5" y="-244.4" font-family="Times Roman,serif" font-size="14.00">price :integer</text>
<text text-anchor="start" x="429.5" y="-226.4" font-family="Times Roman,serif" font-size="14.00">additional :character varying</text>
<text text-anchor="start" x="429.5" y="-208.4" font-family="Times Roman,serif" font-size="14.00">picture :character varying</text>
<text text-anchor="start" x="429.5" y="-190.4" font-family="Times Roman,serif" font-size="14.00">created_at :timestamp without time zone</text>
<text text-anchor="start" x="429.5" y="-172.4" font-family="Times Roman,serif" font-size="14.00">updated_at :timestamp without time zone</text>
</g>
<!-- Category&#45;&gt;Product -->
<g id="edge4" class="edge"><title>Category&#45;&gt;Product</title>
<path fill="none" stroke="#6473ec" d="M460.376,-433.373C474.111,-412.896 489.425,-390.066 504.297,-367.895"/>
<polygon fill="#6473ec" stroke="#6473ec" points="460.336,-433.432 451.028,-439.23 457.55,-437.585 454.765,-441.737 454.765,-441.737 454.765,-441.737 457.55,-437.585 458.502,-444.244 460.336,-433.432 460.336,-433.432"/>
<polygon fill="#6473ec" stroke="#6473ec" points="504.4,-367.741 513.708,-361.943 507.185,-363.589 509.971,-359.436 509.971,-359.436 509.971,-359.436 507.185,-363.589 506.233,-356.93 504.4,-367.741 504.4,-367.741"/>
</g>
<!-- ProductCategory -->
<g id="node9" class="node"><title>ProductCategory</title>
<polyline fill="none" stroke="black" points="270.5,-1 555.5,-1 "/>
<path fill="none" stroke="black" d="M555.5,-1C561.5,-1 567.5,-7 567.5,-13"/>
<polyline fill="none" stroke="black" points="567.5,-13 567.5,-113 "/>
<path fill="none" stroke="black" d="M567.5,-113C567.5,-119 561.5,-125 555.5,-125"/>
<polyline fill="none" stroke="black" points="555.5,-125 270.5,-125 "/>
<path fill="none" stroke="black" d="M270.5,-125C264.5,-125 258.5,-119 258.5,-113"/>
<polyline fill="none" stroke="black" points="258.5,-113 258.5,-13 "/>
<path fill="none" stroke="black" d="M258.5,-13C258.5,-7 264.5,-1 270.5,-1"/>
<text text-anchor="middle" x="413" y="-108.4" font-family="Times Roman,serif" font-size="14.00">ProductCategory</text>
<polyline fill="none" stroke="black" points="258.5,-99 567.5,-99 "/>
<text text-anchor="start" x="266.5" y="-82.4" font-family="Times Roman,serif" font-size="14.00">id :integer</text>
<text text-anchor="start" x="266.5" y="-64.4" font-family="Times Roman,serif" font-size="14.00">product_id :integer</text>
<text text-anchor="start" x="266.5" y="-46.4" font-family="Times Roman,serif" font-size="14.00">category_id :integer</text>
<text text-anchor="start" x="266.5" y="-28.4" font-family="Times Roman,serif" font-size="14.00">created_at :timestamp without time zone</text>
<text text-anchor="start" x="266.5" y="-10.4" font-family="Times Roman,serif" font-size="14.00">updated_at :timestamp without time zone</text>
</g>
<!-- Category&#45;&gt;ProductCategory -->
<g id="edge2" class="edge"><title>Category&#45;&gt;ProductCategory</title>
<path fill="none" stroke="#2af651" d="M413,-433.697C413,-352.005 413,-217.894 413,-135.341"/>
<ellipse fill="none" stroke="#2af651" cx="413" cy="-437.751" rx="4" ry="4"/>
<polygon fill="#2af651" stroke="#2af651" points="413,-135.288 417.5,-125.288 413,-130.288 413,-125.288 413,-125.288 413,-125.288 413,-130.288 408.5,-125.288 413,-135.288 413,-135.288"/>
</g>
<!-- Order -->
<g id="node3" class="node"><title>Order</title>
<polyline fill="none" stroke="black" points="605.5,-397 890.5,-397 "/>
<path fill="none" stroke="black" d="M890.5,-397C896.5,-397 902.5,-403 902.5,-409"/>
<polyline fill="none" stroke="black" points="902.5,-409 902.5,-599 "/>
<path fill="none" stroke="black" d="M902.5,-599C902.5,-605 896.5,-611 890.5,-611"/>
<polyline fill="none" stroke="black" points="890.5,-611 605.5,-611 "/>
<path fill="none" stroke="black" d="M605.5,-611C599.5,-611 593.5,-605 593.5,-599"/>
<polyline fill="none" stroke="black" points="593.5,-599 593.5,-409 "/>
<path fill="none" stroke="black" d="M593.5,-409C593.5,-403 599.5,-397 605.5,-397"/>
<text text-anchor="middle" x="748" y="-594.4" font-family="Times Roman,serif" font-size="14.00">Order</text>
<polyline fill="none" stroke="black" points="593.5,-585 902.5,-585 "/>
<text text-anchor="start" x="601.5" y="-568.4" font-family="Times Roman,serif" font-size="14.00">id :integer</text>
<text text-anchor="start" x="601.5" y="-550.4" font-family="Times Roman,serif" font-size="14.00">totalamount :integer</text>
<text text-anchor="start" x="601.5" y="-532.4" font-family="Times Roman,serif" font-size="14.00">deliveryamount :integer</text>
<text text-anchor="start" x="601.5" y="-514.4" font-family="Times Roman,serif" font-size="14.00">productsamount :integer</text>
<text text-anchor="start" x="601.5" y="-496.4" font-family="Times Roman,serif" font-size="14.00">orderlist :character varying</text>
<text text-anchor="start" x="601.5" y="-478.4" font-family="Times Roman,serif" font-size="14.00">client_id :integer</text>
<text text-anchor="start" x="601.5" y="-460.4" font-family="Times Roman,serif" font-size="14.00">zone_id :integer</text>
<text text-anchor="start" x="601.5" y="-442.4" font-family="Times Roman,serif" font-size="14.00">payment_id :integer</text>
<text text-anchor="start" x="601.5" y="-424.4" font-family="Times Roman,serif" font-size="14.00">created_at :timestamp without time zone</text>
<text text-anchor="start" x="601.5" y="-406.4" font-family="Times Roman,serif" font-size="14.00">updated_at :timestamp without time zone</text>
</g>
<!-- OrderProduct -->
<g id="node7" class="node"><title>OrderProduct</title>
<polyline fill="none" stroke="black" points="605.5,-1 890.5,-1 "/>
<path fill="none" stroke="black" d="M890.5,-1C896.5,-1 902.5,-7 902.5,-13"/>
<polyline fill="none" stroke="black" points="902.5,-13 902.5,-113 "/>
<path fill="none" stroke="black" d="M902.5,-113C902.5,-119 896.5,-125 890.5,-125"/>
<polyline fill="none" stroke="black" points="890.5,-125 605.5,-125 "/>
<path fill="none" stroke="black" d="M605.5,-125C599.5,-125 593.5,-119 593.5,-113"/>
<polyline fill="none" stroke="black" points="593.5,-113 593.5,-13 "/>
<path fill="none" stroke="black" d="M593.5,-13C593.5,-7 599.5,-1 605.5,-1"/>
<text text-anchor="middle" x="748" y="-108.4" font-family="Times Roman,serif" font-size="14.00">OrderProduct</text>
<polyline fill="none" stroke="black" points="593.5,-99 902.5,-99 "/>
<text text-anchor="start" x="601.5" y="-82.4" font-family="Times Roman,serif" font-size="14.00">id :integer</text>
<text text-anchor="start" x="601.5" y="-64.4" font-family="Times Roman,serif" font-size="14.00">product_id :integer</text>
<text text-anchor="start" x="601.5" y="-46.4" font-family="Times Roman,serif" font-size="14.00">order_id :integer</text>
<text text-anchor="start" x="601.5" y="-28.4" font-family="Times Roman,serif" font-size="14.00">created_at :timestamp without time zone</text>
<text text-anchor="start" x="601.5" y="-10.4" font-family="Times Roman,serif" font-size="14.00">updated_at :timestamp without time zone</text>
</g>
<!-- Order&#45;&gt;OrderProduct -->
<g id="edge6" class="edge"><title>Order&#45;&gt;OrderProduct</title>
<path fill="none" stroke="#1c444d" d="M748,-388.894C748,-308.716 748,-204.23 748,-135.455"/>
<ellipse fill="none" stroke="#1c444d" cx="748" cy="-392.965" rx="4" ry="4"/>
<polygon fill="#1c444d" stroke="#1c444d" points="748,-135.154 752.5,-125.154 748,-130.154 748,-125.154 748,-125.154 748,-125.154 748,-130.154 743.5,-125.154 748,-135.154 748,-135.154"/>
</g>
<!-- Order&#45;&gt;Product -->
<g id="edge8" class="edge"><title>Order&#45;&gt;Product</title>
<path fill="none" stroke="#cb33c2" d="M666.253,-388.509C661.276,-381.477 656.28,-374.419 651.331,-367.428"/>
<polygon fill="#cb33c2" stroke="#cb33c2" points="666.28,-388.547 668.385,-399.309 669.169,-392.628 672.058,-396.709 672.058,-396.709 672.058,-396.709 669.169,-392.628 675.731,-394.109 666.28,-388.547 666.28,-388.547"/>
<polygon fill="#cb33c2" stroke="#cb33c2" points="651.326,-367.42 649.221,-356.657 648.437,-363.338 645.548,-359.257 645.548,-359.257 645.548,-359.257 648.437,-363.338 641.875,-361.857 651.326,-367.42 651.326,-367.42"/>
</g>
<!-- Payment -->
<g id="node4" class="node"><title>Payment</title>
<polyline fill="none" stroke="black" points="279.5,-658 564.5,-658 "/>
<path fill="none" stroke="black" d="M564.5,-658C570.5,-658 576.5,-664 576.5,-670"/>
<polyline fill="none" stroke="black" points="576.5,-670 576.5,-824 "/>
<path fill="none" stroke="black" d="M576.5,-824C576.5,-830 570.5,-836 564.5,-836"/>
<polyline fill="none" stroke="black" points="564.5,-836 279.5,-836 "/>
<path fill="none" stroke="black" d="M279.5,-836C273.5,-836 267.5,-830 267.5,-824"/>
<polyline fill="none" stroke="black" points="267.5,-824 267.5,-670 "/>
<path fill="none" stroke="black" d="M267.5,-670C267.5,-664 273.5,-658 279.5,-658"/>
<text text-anchor="middle" x="422" y="-819.4" font-family="Times Roman,serif" font-size="14.00">Payment</text>
<polyline fill="none" stroke="black" points="267.5,-810 576.5,-810 "/>
<text text-anchor="start" x="275.5" y="-793.4" font-family="Times Roman,serif" font-size="14.00">id :integer</text>
<text text-anchor="start" x="275.5" y="-775.4" font-family="Times Roman,serif" font-size="14.00">name :character varying</text>
<text text-anchor="start" x="275.5" y="-757.4" font-family="Times Roman,serif" font-size="14.00">amount :integer</text>
<text text-anchor="start" x="275.5" y="-739.4" font-family="Times Roman,serif" font-size="14.00">ordernumber :integer</text>
<text text-anchor="start" x="275.5" y="-721.4" font-family="Times Roman,serif" font-size="14.00">tpye :character varying</text>
<text text-anchor="start" x="275.5" y="-703.4" font-family="Times Roman,serif" font-size="14.00">status :character varying</text>
<text text-anchor="start" x="275.5" y="-685.4" font-family="Times Roman,serif" font-size="14.00">created_at :timestamp without time zone</text>
<text text-anchor="start" x="275.5" y="-667.4" font-family="Times Roman,serif" font-size="14.00">updated_at :timestamp without time zone</text>
</g>
<!-- Payment&#45;&gt;Order -->
<g id="edge10" class="edge"><title>Payment&#45;&gt;Order</title>
<path fill="none" stroke="#649c54" d="M548.281,-652.871C563.936,-641.201 580.068,-629.177 596.057,-617.258"/>
<ellipse fill="none" stroke="#649c54" cx="544.746" cy="-655.505" rx="4.00002" ry="4.00002"/>
<polygon fill="#649c54" stroke="#649c54" points="596.384,-617.014 607.091,-614.646 600.393,-614.026 604.402,-611.038 604.402,-611.038 604.402,-611.038 600.393,-614.026 601.713,-607.43 596.384,-617.014 596.384,-617.014"/>
</g>
<!-- Zone -->
<g id="node5" class="node"><title>Zone</title>
<polyline fill="none" stroke="black" points="605.5,-667 890.5,-667 "/>
<path fill="none" stroke="black" d="M890.5,-667C896.5,-667 902.5,-673 902.5,-679"/>
<polyline fill="none" stroke="black" points="902.5,-679 902.5,-815 "/>
<path fill="none" stroke="black" d="M902.5,-815C902.5,-821 896.5,-827 890.5,-827"/>
<polyline fill="none" stroke="black" points="890.5,-827 605.5,-827 "/>
<path fill="none" stroke="black" d="M605.5,-827C599.5,-827 593.5,-821 593.5,-815"/>
<polyline fill="none" stroke="black" points="593.5,-815 593.5,-679 "/>
<path fill="none" stroke="black" d="M593.5,-679C593.5,-673 599.5,-667 605.5,-667"/>
<text text-anchor="middle" x="748" y="-810.4" font-family="Times Roman,serif" font-size="14.00">Zone</text>
<polyline fill="none" stroke="black" points="593.5,-801 902.5,-801 "/>
<text text-anchor="start" x="601.5" y="-784.4" font-family="Times Roman,serif" font-size="14.00">id :integer</text>
<text text-anchor="start" x="601.5" y="-766.4" font-family="Times Roman,serif" font-size="14.00">name :character varying</text>
<text text-anchor="start" x="601.5" y="-748.4" font-family="Times Roman,serif" font-size="14.00">price :integer</text>
<text text-anchor="start" x="601.5" y="-730.4" font-family="Times Roman,serif" font-size="14.00">description :character varying</text>
<text text-anchor="start" x="601.5" y="-712.4" font-family="Times Roman,serif" font-size="14.00">dots :character varying</text>
<text text-anchor="start" x="601.5" y="-694.4" font-family="Times Roman,serif" font-size="14.00">created_at :timestamp without time zone</text>
<text text-anchor="start" x="601.5" y="-676.4" font-family="Times Roman,serif" font-size="14.00">updated_at :timestamp without time zone</text>
</g>
<!-- Zone&#45;&gt;Order -->
<g id="edge12" class="edge"><title>Zone&#45;&gt;Order</title>
<path fill="none" stroke="#3ee01e" d="M748,-658.735C748,-646.51 748,-633.8 748,-621.152"/>
<ellipse fill="none" stroke="#3ee01e" cx="748" cy="-662.759" rx="4" ry="4"/>
<polygon fill="#3ee01e" stroke="#3ee01e" points="748,-621.032 752.5,-611.032 748,-616.032 748,-611.032 748,-611.032 748,-611.032 748,-616.032 743.5,-611.032 748,-621.032 748,-621.032"/>
</g>
<!-- ApplicationRecord -->
<g id="node6" class="node"><title>ApplicationRecord</title>
<ellipse fill="none" stroke="black" cx="1344" cy="-747" rx="97.7889" ry="18.3848"/>
<text text-anchor="middle" x="1344" y="-743.4" font-family="Times Roman,serif" font-size="14.00">ApplicationRecord</text>
</g>
<!-- Product&#45;&gt;OrderProduct -->
<g id="edge16" class="edge"><title>Product&#45;&gt;OrderProduct</title>
<path fill="none" stroke="#b2be87" d="M666.73,-156.555C673.712,-148.518 680.652,-140.529 687.365,-132.8"/>
<ellipse fill="none" stroke="#b2be87" cx="663.867" cy="-159.85" rx="4.00002" ry="4.00002"/>
<polygon fill="#b2be87" stroke="#b2be87" points="687.439,-132.716 697.394,-128.118 690.718,-128.941 693.997,-125.167 693.997,-125.167 693.997,-125.167 690.718,-128.941 690.599,-122.216 687.439,-132.716 687.439,-132.716"/>
</g>
<!-- Product&#45;&gt;ProductCategory -->
<g id="edge14" class="edge"><title>Product&#45;&gt;ProductCategory</title>
<path fill="none" stroke="#fbaef1" d="M490.017,-156.555C483.539,-148.685 477.098,-140.861 470.86,-133.284"/>
<ellipse fill="none" stroke="#fbaef1" cx="492.674" cy="-159.782" rx="4.00002" ry="4.00002"/>
<polygon fill="#fbaef1" stroke="#fbaef1" points="470.533,-132.887 467.652,-122.307 467.355,-129.027 464.178,-125.167 464.178,-125.167 464.178,-125.167 467.355,-129.027 460.703,-128.027 470.533,-132.887 470.533,-132.887"/>
</g>
<!-- Client -->
<g id="node10" class="node"><title>Client</title>
<polyline fill="none" stroke="black" points="931.5,-649 1216.5,-649 "/>
<path fill="none" stroke="black" d="M1216.5,-649C1222.5,-649 1228.5,-655 1228.5,-661"/>
<polyline fill="none" stroke="black" points="1228.5,-661 1228.5,-833 "/>
<path fill="none" stroke="black" d="M1228.5,-833C1228.5,-839 1222.5,-845 1216.5,-845"/>
<polyline fill="none" stroke="black" points="1216.5,-845 931.5,-845 "/>
<path fill="none" stroke="black" d="M931.5,-845C925.5,-845 919.5,-839 919.5,-833"/>
<polyline fill="none" stroke="black" points="919.5,-833 919.5,-661 "/>
<path fill="none" stroke="black" d="M919.5,-661C919.5,-655 925.5,-649 931.5,-649"/>
<text text-anchor="middle" x="1074" y="-828.4" font-family="Times Roman,serif" font-size="14.00">Client</text>
<polyline fill="none" stroke="black" points="919.5,-819 1228.5,-819 "/>
<text text-anchor="start" x="927.5" y="-802.4" font-family="Times Roman,serif" font-size="14.00">id :integer</text>
<text text-anchor="start" x="927.5" y="-784.4" font-family="Times Roman,serif" font-size="14.00">name :character varying</text>
<text text-anchor="start" x="927.5" y="-766.4" font-family="Times Roman,serif" font-size="14.00">address :character varying</text>
<text text-anchor="start" x="927.5" y="-748.4" font-family="Times Roman,serif" font-size="14.00">email :character varying</text>
<text text-anchor="start" x="927.5" y="-730.4" font-family="Times Roman,serif" font-size="14.00">phone :character varying</text>
<text text-anchor="start" x="927.5" y="-712.4" font-family="Times Roman,serif" font-size="14.00">latitude :character varying</text>
<text text-anchor="start" x="927.5" y="-694.4" font-family="Times Roman,serif" font-size="14.00">longitude :character varying</text>
<text text-anchor="start" x="927.5" y="-676.4" font-family="Times Roman,serif" font-size="14.00">created_at :timestamp without time zone</text>
<text text-anchor="start" x="927.5" y="-658.4" font-family="Times Roman,serif" font-size="14.00">updated_at :timestamp without time zone</text>
</g>
<!-- Client&#45;&gt;Order -->
<g id="edge18" class="edge"><title>Client&#45;&gt;Order</title>
<path fill="none" stroke="#2d066b" d="M935.667,-643.887C923.825,-635.059 911.804,-626.1 899.864,-617.199"/>
<ellipse fill="none" stroke="#2d066b" cx="939.136" cy="-646.472" rx="4.00002" ry="4.00002"/>
<polygon fill="#2d066b" stroke="#2d066b" points="899.632,-617.026 894.303,-607.442 895.623,-614.038 891.614,-611.05 891.614,-611.05 891.614,-611.05 895.623,-614.038 888.924,-614.658 899.632,-617.026 899.632,-617.026"/>
</g>
</g>
</svg>
